<svg width="20" height="21" viewBox="0 0 20 21" fill="none" xmlns="http://www.w3.org/2000/svg">
<path d="M10.5 4.5C10.5 4.22386 10.2761 4 10 4C9.72386 4 9.5 4.22386 9.5 4.5L10.5 4.5ZM9.64645 12.8536C9.84171 13.0488 10.1583 13.0488 10.3536 12.8536L13.5355 9.67157C13.7308 9.47631 13.7308 9.15973 13.5355 8.96447C13.3403 8.7692 13.0237 8.7692 12.8284 8.96447L10 11.7929L7.17157 8.96447C6.97631 8.7692 6.65973 8.7692 6.46447 8.96447C6.2692 9.15973 6.2692 9.47631 6.46447 9.67157L9.64645 12.8536ZM9.5 4.5L9.5 12.5L10.5 12.5L10.5 4.5L9.5 4.5Z" fill="white"/>
<path d="M5 16.5H15" stroke="white" stroke-linecap="round"/>
</svg>
