<svg width="16" height="16" viewBox="0 0 16 16" fill="none" xmlns="http://www.w3.org/2000/svg">
<path d="M1 7.5C0.723858 7.5 0.5 7.72386 0.5 8C0.5 8.27614 0.723858 8.5 1 8.5V7.5ZM15.3536 8.35355C15.5488 8.15829 15.5488 7.84171 15.3536 7.64645L12.1716 4.46447C11.9763 4.2692 11.6597 4.2692 11.4645 4.46447C11.2692 4.65973 11.2692 4.97631 11.4645 5.17157L14.2929 8L11.4645 10.8284C11.2692 11.0237 11.2692 11.3403 11.4645 11.5355C11.6597 11.7308 11.9763 11.7308 12.1716 11.5355L15.3536 8.35355ZM1 8.5H15V7.5H1V8.5Z" fill="white"/>
</svg>
