<svg width="144" height="46" viewBox="0 0 144 46" fill="none" xmlns="http://www.w3.org/2000/svg">
<g clip-path="url(#clip0_572_319)">
<path d="M142.775 1.23809H1.23794C1.23045 1.23809 1.22303 1.23956 1.21612 1.24243C1.2092 1.2453 1.20292 1.24951 1.19762 1.25481C1.19233 1.26011 1.18813 1.2664 1.18526 1.27333C1.1824 1.28026 1.18092 1.28768 1.18092 1.29518V43.315C1.18092 43.3738 1.21024 43.4031 1.26889 43.4031H17.8224C17.8419 43.4031 17.8517 43.4129 17.8517 43.4325L17.8403 44.589C17.8403 44.6075 17.8305 44.6167 17.811 44.6167L0.0373926 44.6216C-0.0255938 44.6216 -0.057087 44.5906 -0.057087 44.5287L-0.0587158 0.0489362C-0.0587158 0.0163121 -0.0418833 0 -0.00821817 0H144.041C144.068 0 144.081 0.0135934 144.081 0.0407801V44.4585C144.081 44.4726 144.078 44.4865 144.072 44.4991C144.065 44.5116 144.056 44.5224 144.044 44.5306C144.032 44.5387 144.019 44.544 144.005 44.5459C143.99 44.5479 143.976 44.5464 143.962 44.5417C143.855 44.5036 143.749 44.5145 143.643 44.5743C143.59 44.6037 143.533 44.6184 143.472 44.6184L124.777 44.62C124.764 44.62 124.751 44.6148 124.742 44.6057C124.733 44.5965 124.728 44.584 124.728 44.5711L124.724 43.4292C124.723 43.4118 124.731 43.4031 124.749 43.4031H142.781C142.797 43.4031 142.811 43.3971 142.822 43.3864C142.832 43.3757 142.838 43.3612 142.838 43.346V1.3017C142.838 1.29335 142.837 1.28508 142.834 1.27736C142.83 1.26964 142.826 1.26263 142.82 1.25672C142.814 1.25081 142.807 1.24612 142.799 1.24293C142.792 1.23973 142.783 1.23809 142.775 1.23809Z" fill="#D9D9D9"/>
<path d="M60.6168 28.0209C63.7428 26.7893 62.9707 21.4928 59.3609 21.6135C57.1895 21.6853 55.6566 20.1748 55.4172 18.0754C55.2184 16.3414 56.1909 14.5047 57.9079 13.9191C59.703 13.3058 62.1073 13.8457 62.8908 15.7314C63.1107 16.2599 62.5113 16.7427 62.0373 16.5665C61.63 16.4165 61.3059 15.9075 60.9556 15.609C60.114 14.8891 59.204 14.7515 58.2255 15.1963C56.5851 15.9401 56.2724 17.9563 57.2025 19.351C57.6814 20.0671 58.5594 20.3444 59.3951 20.3183C60.4919 20.2846 61.5193 20.688 62.4771 21.5287C63.6369 22.5449 64.0441 24.0423 63.8568 25.5626C63.5261 28.2362 61.3743 29.7679 58.7663 29.5232C57.3003 29.3862 56.148 28.7174 55.3097 27.5168C55.1077 27.2265 55.0431 26.9312 55.1158 26.6311C55.2168 26.2151 55.712 25.9737 56.0964 26.1645C56.3017 26.2679 56.4787 26.4288 56.6275 26.6474C57.5755 28.0437 58.9976 28.6603 60.6168 28.0209Z" fill="#D9D9D9"/>
<path d="M119.981 29.542C118.945 29.5275 117.922 29.3079 116.97 28.8956C116.018 28.4834 115.157 27.8866 114.434 27.1394C113.712 26.3921 113.143 25.5091 112.76 24.5406C112.377 23.5722 112.187 22.5372 112.202 21.495C112.216 20.4527 112.435 19.4235 112.845 18.4662C113.255 17.5088 113.848 16.642 114.591 15.9152C115.334 15.1885 116.212 14.616 117.175 14.2306C118.137 13.8451 119.166 13.6541 120.202 13.6686C121.239 13.6831 122.262 13.9028 123.213 14.315C124.165 14.7272 125.027 15.324 125.749 16.0712C126.471 16.8185 127.04 17.7015 127.423 18.67C127.807 19.6385 127.996 20.6734 127.982 21.7156C127.967 22.7579 127.749 23.7871 127.339 24.7445C126.929 25.7018 126.335 26.5687 125.592 27.2954C124.85 28.0221 123.972 28.5946 123.009 28.9801C122.046 29.3655 121.017 29.5565 119.981 29.542ZM120.115 28.2622C120.968 28.2592 121.812 28.0839 122.599 27.7461C123.385 27.4083 124.1 26.9147 124.701 26.2935C125.302 25.6724 125.777 24.9358 126.101 24.1258C126.424 23.3158 126.589 22.4483 126.586 21.5728C126.583 20.6973 126.412 19.831 126.083 19.0233C125.754 18.2156 125.273 17.4823 124.668 16.8654C124.062 16.2484 123.345 15.7599 122.556 15.4276C121.767 15.0953 120.921 14.9258 120.068 14.9288C119.216 14.9318 118.372 15.1072 117.585 15.445C116.798 15.7828 116.084 16.2763 115.483 16.8975C114.882 17.5187 114.406 18.2553 114.083 19.0653C113.759 19.8752 113.594 20.7427 113.597 21.6182C113.6 22.4937 113.771 23.36 114.1 24.1677C114.43 24.9754 114.911 25.7087 115.516 26.3257C116.121 26.9426 116.839 27.4312 117.628 27.7634C118.417 28.0957 119.262 28.2652 120.115 28.2622Z" fill="#D9D9D9"/>
<path d="M18.0602 20.7783C19.6892 18.6751 21.3855 16.4861 23.1491 14.2111C23.4293 13.8506 23.7925 13.7625 24.1525 14.0479C24.5163 14.335 24.5592 14.6586 24.2812 15.0185C23.0475 16.6095 21.8133 18.2037 20.5786 19.8012C20.3788 20.06 20.3663 20.3265 20.5411 20.6005C22.1647 23.143 23.7616 25.6496 25.3319 28.1204C25.9265 29.055 24.6803 29.7483 24.1688 28.936C22.6582 26.5337 21.1308 24.1272 19.5866 21.7162C19.5507 21.6597 19.5024 21.6086 19.4416 21.5629C19.4113 21.5398 19.3734 21.5288 19.3355 21.5321C19.2975 21.5355 19.2622 21.5528 19.2363 21.5809C18.7151 22.1501 17.8028 23.1256 17.798 23.9249C17.7893 25.3527 17.7849 26.8872 17.7849 28.5282C17.7849 29.0262 17.5569 29.2742 17.1008 29.272C17.0921 29.272 17.0839 29.272 17.0763 29.272C16.63 29.2731 16.4074 29.0447 16.4085 28.5869C16.4128 23.9477 16.4128 19.289 16.4085 14.6107C16.4068 14.1507 16.6447 13.906 17.1073 13.9174C17.5634 13.9294 17.7909 14.1779 17.7898 14.6629C17.7833 16.6454 17.786 18.6539 17.798 20.6886C17.799 20.9724 17.8865 21.0023 18.0602 20.7783Z" fill="#D9D9D9"/>
<path d="M30.9095 24.734C30.6571 24.734 30.4127 24.8025 30.315 25.0292C29.7904 26.2461 29.2648 27.4934 28.7381 28.7712C28.326 29.7728 27.044 29.1692 27.4285 28.2574C29.4462 23.4595 31.3863 18.8431 33.2487 14.4084C33.5028 13.8016 34.3255 13.7315 34.5975 14.3791C36.5392 18.9943 38.4869 23.6269 40.4406 28.277C40.6165 28.6967 40.5009 29.0012 40.0936 29.1904C40.0849 29.1948 40.0762 29.1986 40.0675 29.2018C39.6484 29.365 39.3535 29.254 39.183 28.8691C38.5836 27.5119 38.0547 26.2521 37.5964 25.0896C37.5555 24.9864 37.4847 24.8979 37.3933 24.8354C37.3018 24.7729 37.1939 24.7393 37.0833 24.7389C34.7865 24.7313 32.7285 24.7296 30.9095 24.734ZM31.0871 23.1256C31.0758 23.1529 31.0715 23.1826 31.0744 23.212C31.0773 23.2414 31.0875 23.2696 31.1039 23.2941C31.1204 23.3186 31.1426 23.3387 31.1686 23.3526C31.1947 23.3664 31.2238 23.3736 31.2533 23.3735L36.5962 23.354C36.6256 23.3538 36.6545 23.3464 36.6803 23.3324C36.7061 23.3185 36.7281 23.2983 36.7444 23.2738C36.7606 23.2494 36.7706 23.2212 36.7735 23.192C36.7763 23.1627 36.772 23.1332 36.7608 23.106L34.0665 16.635C34.0527 16.6024 34.0296 16.5747 34.0001 16.5552C33.9705 16.5357 33.9359 16.5254 33.9006 16.5256C33.8652 16.5258 33.8307 16.5364 33.8014 16.5562C33.7721 16.5759 33.7492 16.6039 33.7358 16.6367L31.0871 23.1256Z" fill="#D9D9D9"/>
<path d="M44.5699 23.4665C44.4787 23.4981 44.4331 23.5622 44.4331 23.659C44.4396 25.3968 44.4358 27.0557 44.4217 28.6358C44.4135 29.515 43.0843 29.5281 43.0843 28.6048C43.0832 23.8069 43.0832 19.1215 43.0843 14.5487C43.0843 14.3901 43.1468 14.2379 43.2583 14.1254C43.3697 14.0129 43.5209 13.9493 43.6789 13.9484C45.1004 13.9397 46.5192 13.9414 47.9354 13.9533C48.8443 13.9599 49.9406 14.2551 50.703 14.7233C52.2733 15.6889 52.9965 17.1255 52.8727 19.0329C52.7343 21.1584 51.1574 22.7341 49.1538 23.2594C48.613 23.4007 47.925 23.46 47.0899 23.4372C46.3895 23.4187 45.6027 23.4187 44.7296 23.4372C44.6731 23.4383 44.6199 23.448 44.5699 23.4665ZM44.4282 15.5128L44.438 21.8484C44.438 21.8738 44.443 21.8989 44.4528 21.9224C44.4625 21.9459 44.4768 21.9672 44.4949 21.9851C44.5129 22.003 44.5343 22.0171 44.5578 22.0267C44.5813 22.0362 44.6064 22.0411 44.6318 22.0409L47.9044 22.0343C48.8647 22.0324 49.785 21.6906 50.4628 21.084C51.1407 20.4774 51.5206 19.6557 51.5191 18.7996V18.5354C51.5183 18.1114 51.4238 17.6918 51.2411 17.3004C51.0584 16.909 50.7909 16.5536 50.4541 16.2544C50.1172 15.9553 49.7175 15.7182 49.2778 15.5568C48.8381 15.3954 48.367 15.3128 47.8914 15.3138L44.6188 15.3203C44.5681 15.3207 44.5196 15.3412 44.4839 15.3772C44.4482 15.4133 44.4282 15.462 44.4282 15.5128Z" fill="#D9D9D9"/>
<path d="M70.213 15.4638C70.2128 15.4453 70.2089 15.4269 70.2016 15.4099C70.1943 15.3928 70.1836 15.3774 70.1703 15.3645C70.1569 15.3516 70.1412 15.3415 70.1239 15.3348C70.1067 15.328 70.0882 15.3247 70.0697 15.3252C69.0478 15.3513 67.9591 15.3426 66.8036 15.2991C65.911 15.2665 65.88 13.9484 66.7873 13.9468C69.5316 13.9425 72.2715 13.9435 75.0071 13.9501C75.4414 13.9512 75.6527 14.1692 75.6407 14.6042C75.6407 14.6129 75.6407 14.6216 75.6407 14.6303C75.6288 15.0664 75.4056 15.2909 74.9712 15.304C73.7234 15.342 72.6429 15.348 71.7296 15.3219C71.7088 15.3215 71.6881 15.3252 71.6688 15.3329C71.6494 15.3406 71.6318 15.352 71.6169 15.3666C71.602 15.3812 71.5902 15.3986 71.5822 15.4178C71.5741 15.437 71.5699 15.4577 71.57 15.4785C71.5765 19.7218 71.5754 24.1016 71.5667 28.6179C71.5651 29.5379 70.2114 29.5199 70.213 28.5461C70.2174 23.9907 70.2174 19.6299 70.213 15.4638Z" fill="#D9D9D9"/>
<path d="M88.1316 25.5463C88.364 24.8101 88.4921 24.0967 88.516 23.4062C88.5258 23.1343 88.5404 22.8624 88.56 22.5906C88.5806 22.285 88.5915 22.0142 88.5926 21.7782C88.5958 19.4315 88.5964 17.0488 88.5942 14.6303C88.5931 14.1953 88.813 13.9686 89.2539 13.9501C89.2626 13.949 89.2713 13.9484 89.28 13.9484C89.7209 13.9561 89.9408 14.1795 89.9397 14.6189C89.9386 17.3952 89.9386 20.1139 89.9397 22.7749C89.9397 24.0418 89.7616 25.1809 89.4054 26.1923C88.718 28.1443 87.3372 29.2421 85.263 29.4857C84.6222 29.5607 83.9674 29.5667 83.2984 29.5036C81.1384 29.3003 79.6729 28.2242 78.9019 26.2755C78.6543 25.6523 78.4843 24.9868 78.392 24.2789C78.3019 23.5948 78.2574 22.9016 78.2584 22.1991C78.2639 19.5989 78.2666 17.0738 78.2666 14.6238C78.2655 14.1757 78.486 13.9528 78.9279 13.955C78.9366 13.955 78.9453 13.955 78.954 13.955C79.396 13.9571 79.6164 14.1958 79.6154 14.6711C79.6088 17.3267 79.6121 19.768 79.6251 21.9952C79.6273 22.5193 79.649 23.0256 79.6903 23.5138C79.7435 24.1543 79.8646 24.7693 80.0536 25.3587C80.3088 26.1548 80.6997 26.7855 81.2264 27.2509C81.7922 27.749 82.478 28.0649 83.2838 28.1987C84.0939 28.3335 84.8666 28.2971 85.6018 28.0894C86.2577 27.9045 86.804 27.5831 87.2405 27.1253C87.6336 26.711 87.9307 26.1847 88.1316 25.5463Z" fill="#D9D9D9"/>
<path d="M93.3409 14.5161C93.3409 14.3565 93.4043 14.2034 93.517 14.0905C93.6297 13.9776 93.7826 13.9142 93.942 13.9142H97.1266C98.1158 13.9142 99.0953 14.1054 100.009 14.4769C100.923 14.8484 101.753 15.393 102.453 16.0794C103.152 16.7659 103.707 17.5809 104.086 18.4778C104.464 19.3747 104.659 20.336 104.659 21.3068V21.8582C104.659 23.8188 103.865 25.6991 102.453 27.0855C101.04 28.4719 99.1243 29.2508 97.1266 29.2508H93.942C93.7826 29.2508 93.6297 29.1874 93.517 29.0745C93.4043 28.9616 93.3409 28.8085 93.3409 28.6489V14.5161ZM94.7174 15.5454V27.6033C94.7174 27.6712 94.7444 27.7363 94.7923 27.7844C94.8403 27.8324 94.9053 27.8594 94.9732 27.8594H97.1429C98.7816 27.8594 100.353 27.2073 101.512 26.0467C102.671 24.8861 103.322 23.3119 103.322 21.6706V21.4781C103.322 19.8367 102.671 18.2626 101.512 17.1019C100.353 15.9413 98.7816 15.2893 97.1429 15.2893H94.9732C94.9053 15.2893 94.8403 15.3163 94.7923 15.3643C94.7444 15.4123 94.7174 15.4775 94.7174 15.5454Z" fill="#D9D9D9"/>
<path d="M108.525 13.9419H108.407C108.067 13.9419 107.792 14.218 107.792 14.5585V28.6652C107.792 29.0057 108.067 29.2818 108.407 29.2818H108.525C108.865 29.2818 109.14 29.0057 109.14 28.6652V14.5585C109.14 14.218 108.865 13.9419 108.525 13.9419Z" fill="#D9D9D9"/>
<path d="M114.532 40.7508C114.685 41.0694 114.925 41.1678 115.251 41.046C115.368 41.0014 115.452 40.915 115.503 40.7867C115.562 40.6399 115.668 40.5828 115.822 40.6154L115.865 40.6235C115.881 40.627 115.896 40.6336 115.909 40.643C115.922 40.6523 115.934 40.6641 115.942 40.6778C115.951 40.6915 115.957 40.7067 115.959 40.7226C115.962 40.7385 115.961 40.7547 115.957 40.7704C115.873 41.1173 115.622 41.3092 115.207 41.3462C114.629 41.3973 114.253 41.2184 114.079 40.8095C114.04 40.7171 114.068 40.6535 114.162 40.6187C114.229 40.5947 114.3 40.5947 114.377 40.6187C114.411 40.629 114.442 40.6461 114.469 40.6688C114.495 40.6915 114.517 40.7194 114.532 40.7508Z" fill="#D9D9D9"/>
<path d="M64.2022 44.545C64.2022 44.9482 64.0422 45.3349 63.7575 45.62C63.4728 45.9051 63.0867 46.0652 62.684 46.0652H62.4364C62.0338 46.0652 61.6476 45.9051 61.3629 45.62C61.0782 45.3349 60.9182 44.9482 60.9182 44.545V43.1911C60.9182 42.7879 61.0782 42.4012 61.3629 42.1161C61.6476 41.8309 62.0338 41.6708 62.4364 41.6708H62.684C63.0867 41.6708 63.4728 41.8309 63.7575 42.1161C64.0422 42.4012 64.2022 42.7879 64.2022 43.1911V44.545ZM63.7322 43.1446C63.7312 42.8556 63.6156 42.5788 63.4108 42.3752C63.206 42.1716 62.9288 42.0577 62.6402 42.0587L62.4806 42.0593C62.3377 42.0598 62.1963 42.0885 62.0645 42.1437C61.9326 42.1989 61.813 42.2796 61.7123 42.3811C61.6116 42.4827 61.5318 42.6031 61.4776 42.7355C61.4234 42.8679 61.3957 43.0097 61.3962 43.1527L61.4013 44.5914C61.4023 44.8804 61.5179 45.1572 61.7227 45.3608C61.9274 45.5645 62.2046 45.6783 62.4932 45.6773L62.6528 45.6767C62.7957 45.6762 62.9371 45.6476 63.069 45.5923C63.2008 45.5371 63.3205 45.4564 63.4212 45.3549C63.5219 45.2534 63.6016 45.133 63.6558 45.0006C63.71 44.8682 63.7377 44.7264 63.7372 44.5833L63.7322 43.1446Z" fill="#D9D9D9"/>
<path d="M94.8983 45.5971L96.322 45.6004C96.3336 45.6004 96.345 45.5981 96.3557 45.5937C96.3664 45.5892 96.3761 45.5827 96.3842 45.5746C96.3924 45.5664 96.3989 45.5567 96.4033 45.546C96.4077 45.5353 96.41 45.5238 96.41 45.5123L96.4035 41.8567C96.4034 41.8342 96.412 41.8125 96.4275 41.7961C96.4429 41.7797 96.4641 41.7699 96.4865 41.7687L96.7472 41.754C96.7591 41.7533 96.7711 41.7551 96.7823 41.7592C96.7936 41.7634 96.8039 41.7697 96.8126 41.778C96.8213 41.7862 96.8282 41.7962 96.8329 41.8072C96.8376 41.8182 96.84 41.8301 96.84 41.8421L96.8449 45.8989C96.8449 45.9104 96.8426 45.9219 96.8382 45.9326C96.8338 45.9433 96.8273 45.953 96.8191 45.9612C96.811 45.9693 96.8013 45.9758 96.7906 45.9803C96.7799 45.9847 96.7685 45.987 96.7569 45.987L92.3995 45.9739C92.3762 45.9739 92.3538 45.9646 92.3373 45.9481C92.3208 45.9316 92.3115 45.9092 92.3115 45.8858L92.3311 41.8421C92.331 41.8195 92.3396 41.7978 92.3551 41.7814C92.3705 41.7651 92.3917 41.7552 92.4141 41.754L92.6275 41.7426C92.6394 41.7419 92.6512 41.7436 92.6623 41.7477C92.6735 41.7517 92.6837 41.7579 92.6923 41.766C92.701 41.7741 92.708 41.7838 92.7128 41.7946C92.7176 41.8055 92.7202 41.8172 92.7204 41.829L92.7562 45.5204C92.7567 45.5435 92.7661 45.5655 92.7826 45.5817C92.799 45.5978 92.8211 45.6069 92.8442 45.6069L94.2777 45.6167C94.301 45.6167 94.3234 45.6074 94.3399 45.5909C94.3564 45.5744 94.3656 45.5519 94.3656 45.5286L94.3705 41.8241C94.3704 41.8115 94.373 41.7991 94.3781 41.7876C94.3832 41.776 94.3908 41.7658 94.4002 41.7574C94.4096 41.7491 94.4207 41.7428 94.4327 41.7392C94.4447 41.7355 94.4574 41.7344 94.4699 41.736L94.7175 41.767C94.7388 41.7698 94.7583 41.7803 94.7725 41.7965C94.7866 41.8128 94.7942 41.8336 94.7941 41.8551L94.8104 45.509C94.8104 45.5324 94.8196 45.5548 94.8361 45.5713C94.8526 45.5878 94.875 45.5971 94.8983 45.5971Z" fill="#D9D9D9"/>
<path d="M105.884 43.5385L105.879 41.8584C105.879 41.835 105.888 41.8125 105.904 41.7955C105.92 41.7785 105.942 41.7683 105.965 41.767L106.215 41.754C106.227 41.7533 106.239 41.7552 106.251 41.7595C106.263 41.7638 106.273 41.7704 106.282 41.7789C106.291 41.7875 106.299 41.7978 106.303 41.8092C106.308 41.8206 106.311 41.8329 106.311 41.8453L106.309 45.8891C106.309 45.9014 106.307 45.9135 106.302 45.9248C106.297 45.9361 106.29 45.9463 106.281 45.9549C106.273 45.9634 106.262 45.97 106.251 45.9744C106.239 45.9788 106.227 45.9809 106.215 45.9804L105.97 45.9723C105.947 45.9714 105.924 45.9614 105.908 45.9444C105.892 45.9274 105.882 45.9046 105.882 45.8809L105.876 44.0948C105.876 44.0705 105.866 44.0473 105.849 44.0302C105.832 44.013 105.809 44.0034 105.785 44.0034L103.955 44.0001C103.931 44.0001 103.908 44.0098 103.891 44.0269C103.874 44.044 103.864 44.0673 103.864 44.0915L103.856 45.8646C103.856 45.887 103.847 45.9084 103.832 45.925C103.817 45.9415 103.797 45.9519 103.775 45.9543L103.55 45.9788C103.537 45.9802 103.524 45.9788 103.512 45.9749C103.5 45.9709 103.488 45.9644 103.479 45.9558C103.469 45.9471 103.462 45.9366 103.456 45.9248C103.451 45.9131 103.449 45.9003 103.449 45.8875L103.411 41.8421C103.411 41.8298 103.413 41.8176 103.418 41.8062C103.422 41.7948 103.429 41.7845 103.438 41.7758C103.447 41.7671 103.457 41.7603 103.468 41.7557C103.48 41.7511 103.492 41.7489 103.504 41.7491L103.748 41.7572C103.772 41.7581 103.794 41.7678 103.81 41.7845C103.827 41.8012 103.836 41.8236 103.836 41.847L103.884 43.5385C103.884 43.5619 103.894 43.5841 103.911 43.6004C103.928 43.6168 103.95 43.6262 103.973 43.6266L105.793 43.6299C105.817 43.6299 105.84 43.6202 105.857 43.6031C105.874 43.586 105.884 43.5627 105.884 43.5385Z" fill="#D9D9D9"/>
<path d="M27.1498 42.4929C27.1509 42.3276 27.1118 42.3178 27.0325 42.4636C26.482 43.4847 25.8733 44.6021 25.2065 45.8157C25.1039 46.0033 24.9051 46.0196 24.7194 45.9804C24.6401 45.9641 24.6005 45.9157 24.6005 45.8353L24.5989 41.9041C24.5989 41.8105 24.645 41.7621 24.7373 41.7589L24.8872 41.7523C24.9806 41.748 25.0273 41.7926 25.0273 41.8861L25.0191 45.0653C25.0181 45.2458 25.061 45.2567 25.1478 45.0979C25.6778 44.1127 26.23 43.0905 26.8045 42.0313C26.9544 41.7551 27.1846 41.6686 27.4952 41.7719C27.5473 41.7893 27.5734 41.8257 27.5734 41.8812L27.5701 45.8336C27.5701 45.9402 27.5169 45.9935 27.4105 45.9935H27.3127C27.2678 45.9935 27.2247 45.9756 27.1929 45.9438C27.1612 45.912 27.1433 45.8688 27.1433 45.8238L27.1498 42.4929Z" fill="#D9D9D9"/>
<path d="M30.1732 44.0964L30.1797 45.8728C30.1797 45.8975 30.1702 45.9212 30.1533 45.9391C30.1363 45.9571 30.1131 45.9677 30.0884 45.969L29.8262 45.9837C29.8133 45.9843 29.8004 45.9824 29.7883 45.978C29.7762 45.9735 29.7651 45.9667 29.7556 45.9579C29.7462 45.949 29.7386 45.9384 29.7334 45.9266C29.7282 45.9147 29.7254 45.902 29.7252 45.8891L29.717 41.8518C29.717 41.8263 29.7272 41.8018 29.7452 41.7838C29.7632 41.7657 29.7877 41.7556 29.8132 41.7556L30.0836 41.7572C30.109 41.7572 30.1335 41.7674 30.1515 41.7854C30.1695 41.8035 30.1797 41.8279 30.1797 41.8535L30.1699 43.5352C30.1699 43.5479 30.1724 43.5604 30.1772 43.5721C30.182 43.5838 30.1891 43.5944 30.198 43.6033C30.207 43.6122 30.2176 43.6193 30.2292 43.6242C30.2409 43.629 30.2534 43.6315 30.266 43.6315L32.0709 43.6282C32.0964 43.6282 32.1208 43.6181 32.1388 43.6C32.1569 43.582 32.167 43.5575 32.167 43.532V41.8567C32.167 41.844 32.1695 41.8313 32.1745 41.8195C32.1794 41.8077 32.1866 41.7971 32.1957 41.7881C32.2048 41.7791 32.2156 41.7721 32.2275 41.7673C32.2393 41.7626 32.252 41.7603 32.2647 41.7605L32.5074 41.7638C32.5327 41.7642 32.5567 41.7745 32.5744 41.7925C32.592 41.8105 32.6019 41.8347 32.6019 41.86L32.6052 45.863C32.6055 45.8861 32.5974 45.9086 32.5824 45.9263C32.5674 45.944 32.5466 45.9557 32.5237 45.9592L32.2843 45.9967C32.2706 45.9988 32.2567 45.998 32.2434 45.9942C32.2301 45.9904 32.2178 45.9838 32.2073 45.9748C32.1967 45.9659 32.1883 45.9547 32.1825 45.9422C32.1766 45.9296 32.1736 45.916 32.1735 45.9021L32.1621 44.1013C32.1621 44.0757 32.152 44.0513 32.134 44.0332C32.1159 44.0152 32.0915 44.005 32.066 44.005L30.2693 44.0001C30.2438 44.0001 30.2193 44.0103 30.2013 44.0283C30.1833 44.0464 30.1732 44.0709 30.1732 44.0964Z" fill="#D9D9D9"/>
<path d="M36.1466 42.2172L36.1368 45.7994C36.1368 45.9201 36.0766 45.9853 35.956 45.9951L35.8599 46.0033C35.8401 46.0048 35.8201 46.0023 35.8013 45.9958C35.7825 45.9893 35.7652 45.979 35.7505 45.9656C35.7359 45.9521 35.7241 45.9357 35.716 45.9175C35.708 45.8993 35.7037 45.8796 35.7035 45.8597L35.6872 42.2156C35.6872 42.1569 35.6585 42.1275 35.6009 42.1275L34.4004 42.1308C34.307 42.1308 34.2597 42.0846 34.2587 41.9921L34.257 41.9187C34.2549 41.8122 34.3075 41.7589 34.415 41.7589L37.4319 41.7605C37.5329 41.7605 37.5861 41.8111 37.5915 41.9122C37.5926 41.9546 37.5866 41.9965 37.5736 42.0378C37.5551 42.0987 37.5139 42.1291 37.4498 42.1291H36.2346C36.1759 42.1291 36.1466 42.1585 36.1466 42.2172Z" fill="#D9D9D9"/>
<path d="M39.67 43.9724L39.6733 45.5253C39.6733 45.5435 39.6805 45.5609 39.6933 45.5738C39.7061 45.5866 39.7236 45.5938 39.7417 45.5938L41.6769 45.6101C41.6934 45.6104 41.7093 45.6167 41.7216 45.6278C41.7339 45.6389 41.7417 45.6541 41.7437 45.6705L41.7681 45.8679C41.7693 45.8774 41.7684 45.887 41.7656 45.8962C41.7628 45.9054 41.758 45.9138 41.7517 45.9211C41.7455 45.9283 41.7377 45.9341 41.729 45.9382C41.7203 45.9422 41.7109 45.9444 41.7013 45.9445L39.3247 45.9902C39.3156 45.9904 39.3065 45.9888 39.298 45.9855C39.2895 45.9821 39.2818 45.9771 39.2753 45.9707C39.2687 45.9643 39.2635 45.9567 39.26 45.9483C39.2565 45.9399 39.2546 45.9308 39.2546 45.9217V41.8209C39.2546 41.8117 39.2565 41.8027 39.26 41.7942C39.2635 41.7858 39.2687 41.7782 39.2753 41.7718C39.2818 41.7654 39.2895 41.7604 39.298 41.7571C39.3065 41.7537 39.3156 41.7521 39.3247 41.7523L41.672 41.7948C41.6893 41.7951 41.7058 41.8021 41.7182 41.8142C41.7306 41.8263 41.738 41.8427 41.7388 41.86L41.7486 42.0362C41.7492 42.0456 41.748 42.055 41.7448 42.0639C41.7417 42.0728 41.7368 42.0809 41.7304 42.0878C41.7239 42.0947 41.7162 42.1002 41.7075 42.1039C41.6989 42.1077 41.6896 42.1096 41.6802 42.1096L39.7417 42.1389C39.7326 42.1389 39.7235 42.1408 39.7151 42.1443C39.7067 42.1478 39.6991 42.153 39.6927 42.1596C39.6864 42.1661 39.6814 42.1739 39.678 42.1824C39.6747 42.1909 39.6731 42.1999 39.6733 42.2091L39.6831 43.4423C39.6835 43.4599 39.6906 43.4766 39.7031 43.4891C39.7155 43.5016 39.7323 43.5087 39.7498 43.5092L41.4179 43.5271C41.436 43.5271 41.4534 43.5343 41.4663 43.5472C41.4791 43.56 41.4863 43.5774 41.4863 43.5956V43.8142C41.4863 43.8321 41.4793 43.8493 41.4669 43.8621C41.4544 43.8749 41.4374 43.8823 41.4195 43.8827L39.7384 43.9023C39.7293 43.9023 39.7203 43.9041 39.7119 43.9076C39.7035 43.9112 39.6959 43.9164 39.6895 43.9229C39.6831 43.9294 39.6781 43.9372 39.6748 43.9457C39.6714 43.9542 39.6698 43.9633 39.67 43.9724Z" fill="#D9D9D9"/>
<path d="M44.1399 42.2026L44.1089 45.8907C44.1085 45.9102 44.1007 45.9288 44.0871 45.9428C44.0735 45.9567 44.0551 45.9649 44.0356 45.9658L43.8206 45.9723C43.8104 45.9725 43.8003 45.9707 43.7908 45.9669C43.7813 45.9632 43.7727 45.9575 43.7654 45.9504C43.7581 45.9433 43.7523 45.9347 43.7484 45.9253C43.7444 45.9159 43.7424 45.9058 43.7424 45.8956L43.7343 41.8616C43.7343 41.8413 43.7423 41.8218 43.7567 41.8074C43.771 41.793 43.7905 41.785 43.8108 41.785L46.1321 41.7621C46.1424 41.7621 46.1526 41.7642 46.1622 41.7683C46.1717 41.7723 46.1802 41.7783 46.1874 41.7857C46.1946 41.7932 46.2001 41.802 46.2038 41.8117C46.2074 41.8214 46.2091 41.8317 46.2086 41.8421L46.2021 42.0525C46.2017 42.0725 46.1934 42.0916 46.1791 42.1056C46.1648 42.1197 46.1456 42.1275 46.1256 42.1275L44.2164 42.1259C44.1961 42.1259 44.1766 42.134 44.1623 42.1483C44.1479 42.1627 44.1399 42.1822 44.1399 42.2026Z" fill="#D9D9D9"/>
<path d="M48.3002 44.5792V45.8304C48.3002 45.9359 48.2476 45.9908 48.1422 45.9951L48.0233 46C47.9169 46.0044 47.8637 45.9533 47.8637 45.8467L47.8539 41.8355C47.8539 41.8161 47.8616 41.7974 47.8754 41.7836C47.8891 41.7699 47.9077 41.7621 47.9272 41.7621C49.1147 41.7458 50.5856 41.4979 50.4472 43.3199C50.3576 44.4928 49.3118 44.589 48.3931 44.4944C48.3312 44.4879 48.3002 44.5162 48.3002 44.5792ZM48.3002 42.1944V44.054C48.3002 44.0722 48.3074 44.0896 48.3203 44.1024C48.3331 44.1153 48.3505 44.1225 48.3686 44.1225H49.118C49.2292 44.1225 49.3393 44.1014 49.4421 44.0604C49.5449 44.0194 49.6383 43.9593 49.7169 43.8836C49.7956 43.8079 49.858 43.718 49.9005 43.619C49.9431 43.5201 49.965 43.414 49.965 43.3069V42.9415C49.965 42.8344 49.9431 42.7283 49.9005 42.6294C49.858 42.5304 49.7956 42.4405 49.7169 42.3648C49.6383 42.2891 49.5449 42.229 49.4421 42.188C49.3393 42.147 49.2292 42.1259 49.118 42.1259H48.3686C48.3505 42.1259 48.3331 42.1331 48.3203 42.146C48.3074 42.1588 48.3002 42.1762 48.3002 42.1944Z" fill="#D9D9D9"/>
<path d="M52.5909 44.9316L52.2847 45.8026C52.2401 45.9309 52.1495 45.9951 52.0126 45.9951C51.9909 45.9951 51.9746 45.9951 51.9638 45.9951C51.8161 45.994 51.7672 45.9244 51.8172 45.7863C52.3276 44.3552 52.7543 43.0959 53.0975 42.0084C53.1583 41.8149 53.3093 41.7257 53.5504 41.7409C53.7024 41.7507 53.8023 41.8257 53.8501 41.966C54.24 43.1209 54.6771 44.4123 55.1614 45.8401C55.1962 45.9424 55.1592 45.9951 55.0506 45.9984L54.935 46.0016C54.8828 46.0029 54.8316 45.9877 54.7886 45.9581C54.7456 45.9285 54.713 45.8861 54.6955 45.8369L54.3795 44.9365C54.3689 44.9077 54.3499 44.8829 54.3251 44.8654C54.3004 44.8479 54.271 44.8385 54.241 44.8386L52.731 44.8337C52.6604 44.8326 52.6137 44.8652 52.5909 44.9316ZM52.775 44.3672C52.7724 44.3749 52.7717 44.3832 52.773 44.3913C52.7742 44.3994 52.7773 44.4071 52.7821 44.4138C52.7868 44.4205 52.7931 44.4259 52.8004 44.4297C52.8076 44.4335 52.8157 44.4356 52.8239 44.4357L54.14 44.4275C54.1484 44.4275 54.1567 44.4255 54.1641 44.4216C54.1715 44.4177 54.1779 44.4121 54.1827 44.4052C54.1875 44.3983 54.1906 44.3904 54.1917 44.382C54.1927 44.3737 54.1918 44.3653 54.1889 44.3574L53.5178 42.3412C53.5144 42.3306 53.5078 42.3214 53.4989 42.3149C53.49 42.3083 53.4792 42.3048 53.4681 42.3048C53.457 42.3048 53.4463 42.3083 53.4373 42.3149C53.4284 42.3214 53.4218 42.3306 53.4184 42.3412L52.775 44.3672Z" fill="#D9D9D9"/>
<path d="M58.1099 42.2026L58.1018 45.9038C58.1018 45.9241 58.0937 45.9436 58.0794 45.958C58.065 45.9723 58.0455 45.9804 58.0252 45.9804H57.7434C57.7231 45.9804 57.7036 45.9723 57.6893 45.958C57.6749 45.9436 57.6668 45.9241 57.6668 45.9038L57.6636 42.2058C57.6636 42.1855 57.6555 42.166 57.6412 42.1516C57.6268 42.1372 57.6073 42.1291 57.587 42.1291L56.3001 42.1259C56.2809 42.1255 56.2626 42.1179 56.2487 42.1046C56.2348 42.0913 56.2264 42.0733 56.2252 42.0541L56.2138 41.8437C56.2134 41.8333 56.215 41.823 56.2187 41.8133C56.2223 41.8037 56.2279 41.7948 56.2351 41.7874C56.2422 41.7799 56.2508 41.7739 56.2603 41.7699C56.2698 41.7658 56.28 41.7637 56.2904 41.7638L59.4522 41.7572C59.4722 41.7572 59.4914 41.7651 59.5058 41.7791C59.5201 41.7931 59.5283 41.8122 59.5287 41.8323L59.5304 42.0525C59.5306 42.0627 59.5288 42.0728 59.525 42.0823C59.5213 42.0918 59.5157 42.1005 59.5085 42.1078C59.5014 42.115 59.4929 42.1208 59.4835 42.1248C59.4741 42.1287 59.464 42.1308 59.4538 42.1308L58.1865 42.1259C58.1662 42.1259 58.1467 42.134 58.1323 42.1483C58.118 42.1627 58.1099 42.1822 58.1099 42.2026Z" fill="#D9D9D9"/>
<path d="M66.6196 44.6119L66.6261 45.8385C66.6261 45.9223 66.5848 45.9685 66.5023 45.9772L66.3166 45.9951C66.2134 46.0049 66.1618 45.9581 66.1618 45.8548L66.1488 41.8731C66.1488 41.8584 66.1517 41.8438 66.1573 41.8302C66.1629 41.8167 66.171 41.8044 66.1814 41.794C66.1917 41.7837 66.2039 41.7756 66.2173 41.7701C66.2307 41.7646 66.2451 41.7619 66.2596 41.7621C66.6364 41.7621 67.0328 41.76 67.4487 41.7556C68.6297 41.7442 68.9783 42.7555 68.6721 43.7277C68.4196 44.5287 67.4373 44.5564 66.7287 44.5091C66.656 44.5047 66.6196 44.539 66.6196 44.6119ZM66.6245 42.2026L66.6147 44.0393C66.6145 44.0497 66.6163 44.0601 66.6202 44.0698C66.624 44.0795 66.6297 44.0883 66.637 44.0957C66.6443 44.1032 66.653 44.1091 66.6626 44.1131C66.6722 44.1172 66.6825 44.1192 66.6929 44.1192L67.4227 44.1225C67.6453 44.1235 67.8593 44.0419 68.0175 43.8957C68.1757 43.7495 68.2652 43.5506 68.2665 43.3428L68.2697 42.9187C68.2703 42.8155 68.2491 42.7133 68.2074 42.6177C68.1656 42.5222 68.1041 42.4353 68.0263 42.362C67.9485 42.2887 67.8561 42.2303 67.7542 42.1904C67.6523 42.1504 67.5429 42.1296 67.4324 42.1292L66.7027 42.1259C66.6822 42.1259 66.6625 42.1339 66.6479 42.1483C66.6333 42.1626 66.6249 42.1821 66.6245 42.2026Z" fill="#D9D9D9"/>
<path d="M77.7518 42.2237L77.6883 45.8564C77.6872 45.9065 77.6622 45.938 77.6133 45.9511C77.5438 45.9695 77.4743 45.9723 77.4048 45.9592C77.357 45.9505 77.3332 45.9222 77.3332 45.8744L77.2859 42.2058C77.2848 42.1569 77.2599 42.1313 77.211 42.1291L75.9013 42.09C75.8908 42.0899 75.8804 42.0875 75.8709 42.083C75.8613 42.0785 75.8529 42.072 75.8461 42.064C75.8393 42.056 75.8343 42.0465 75.8314 42.0364C75.8286 42.0262 75.828 42.0156 75.8296 42.0052L75.8378 41.9513C75.853 41.8578 75.9078 41.8105 76.0023 41.8094L79.011 41.7589C79.0392 41.7583 79.0671 41.7654 79.092 41.7794C79.1169 41.7934 79.1378 41.8139 79.1527 41.8388C79.1951 41.9106 79.1902 41.9872 79.138 42.0688C79.1265 42.0863 79.1108 42.1007 79.0923 42.1107C79.0738 42.1206 79.0531 42.1259 79.0322 42.1259L77.8479 42.1275C77.7849 42.1275 77.7529 42.1596 77.7518 42.2237Z" fill="#D9D9D9"/>
<path d="M83.88 44.6151L83.8816 45.8238C83.8816 45.9185 83.8349 45.9706 83.7415 45.9804L83.6112 45.9935C83.5899 45.9958 83.5684 45.9935 83.548 45.987C83.5276 45.9804 83.5088 45.9696 83.4928 45.9553C83.4769 45.941 83.4641 45.9235 83.4553 45.904C83.4465 45.8844 83.4419 45.8632 83.4418 45.8418L83.4271 41.86C83.4271 41.8472 83.4296 41.8344 83.4346 41.8226C83.4395 41.8107 83.4467 41.7999 83.4557 41.7908C83.4648 41.7817 83.4756 41.7745 83.4875 41.7696C83.4993 41.7647 83.512 41.7621 83.5249 41.7621C83.931 41.7567 84.3486 41.7567 84.7775 41.7621C85.9569 41.7768 86.198 42.8175 85.9211 43.7473C85.6849 44.5384 84.6586 44.5613 83.9956 44.5075C83.9185 44.502 83.88 44.5379 83.88 44.6151ZM83.8783 42.1993L83.8816 44.0523C83.8816 44.0705 83.8888 44.0879 83.9016 44.1008C83.9145 44.1136 83.9319 44.1209 83.95 44.1209L84.714 44.1192C84.9339 44.1188 85.1446 44.0352 85.2998 43.8868C85.455 43.7384 85.5419 43.5375 85.5415 43.3281V42.917C85.5413 42.8133 85.5197 42.7107 85.4778 42.615C85.4359 42.5193 85.3747 42.4324 85.2975 42.3592C85.2204 42.2861 85.1289 42.2281 85.0282 42.1886C84.9275 42.1491 84.8196 42.1289 84.7107 42.1292L83.9468 42.1308C83.9378 42.1308 83.9289 42.1326 83.9206 42.136C83.9123 42.1394 83.9047 42.1445 83.8984 42.1509C83.892 42.1572 83.887 42.1648 83.8835 42.1731C83.8801 42.1814 83.8783 42.1903 83.8783 42.1993Z" fill="#D9D9D9"/>
<path d="M88.3922 45.5922L90.1873 45.5955C90.3089 45.5965 90.3703 45.658 90.3714 45.7798V45.8418C90.3716 45.859 90.3683 45.8762 90.3618 45.8922C90.3553 45.9082 90.3456 45.9228 90.3333 45.9351C90.321 45.9474 90.3064 45.9571 90.2903 45.9638C90.2742 45.9705 90.2569 45.9739 90.2394 45.9739L87.897 45.9902C87.8853 45.9902 87.8741 45.9856 87.8659 45.9773C87.8576 45.9691 87.853 45.9578 87.853 45.9462L87.8448 41.8372C87.8448 41.8151 87.8534 41.7939 87.8687 41.7783C87.884 41.7627 87.9047 41.754 87.9263 41.754L90.2378 41.7703C90.2932 41.7703 90.3344 41.7947 90.3616 41.8437C90.3833 41.885 90.3909 41.928 90.3844 41.9725C90.3781 42.0156 90.3566 42.055 90.3237 42.0835C90.2907 42.1119 90.2487 42.1276 90.2052 42.1275L88.3694 42.1308C88.3172 42.1308 88.2912 42.1569 88.2912 42.2091L88.2977 43.4782C88.2977 43.5021 88.3096 43.514 88.3335 43.514L89.925 43.5255C90.0575 43.5265 90.1129 43.5923 90.0912 43.7228L90.0781 43.806C90.0705 43.8539 90.0418 43.8783 89.9918 43.8794L88.3482 43.899C88.3335 43.899 88.3194 43.9048 88.309 43.9152C88.2986 43.9256 88.2928 43.9398 88.2928 43.9545V45.4911C88.2928 45.5585 88.3259 45.5922 88.3922 45.5922Z" fill="#D9D9D9"/>
<path d="M99.4105 43.9871L99.4056 45.4682C99.4056 45.5498 99.4463 45.5906 99.5277 45.5906L101.32 45.5987C101.347 45.5987 101.374 45.6054 101.398 45.6182C101.422 45.6311 101.442 45.6496 101.456 45.6721C101.494 45.7308 101.504 45.7896 101.486 45.8483C101.458 45.932 101.399 45.9744 101.311 45.9755L99.0407 45.9886C99.0313 45.9888 99.0221 45.9871 99.0134 45.9837C99.0047 45.9803 98.9968 45.9752 98.9901 45.9686C98.9834 45.9621 98.9781 45.9543 98.9745 45.9457C98.9709 45.937 98.969 45.9278 98.969 45.9184L98.9592 41.8372C98.9592 41.7806 98.9875 41.7529 99.0439 41.754L101.38 41.7752C101.415 41.7752 101.442 41.7899 101.463 41.8192C101.505 41.8801 101.518 41.9443 101.5 42.0117C101.492 42.0437 101.473 42.072 101.447 42.0923C101.421 42.1127 101.39 42.1239 101.357 42.1242L99.4398 42.1455C99.4159 42.1455 99.4039 42.1574 99.4039 42.1813L99.4153 43.4977C99.4153 43.5162 99.424 43.5249 99.4414 43.5238C99.9887 43.5064 100.531 43.5113 101.067 43.5385C101.156 43.5429 101.202 43.5896 101.204 43.6788L101.206 43.7538C101.208 43.8397 101.166 43.8827 101.08 43.8827L99.5033 43.8925C99.4414 43.8936 99.4105 43.9251 99.4105 43.9871Z" fill="#D9D9D9"/>
<path d="M111.012 42.55C111.012 42.3303 110.96 42.3167 110.856 42.5092C110.29 43.5532 109.718 44.6113 109.14 45.6836C108.999 45.9494 108.808 46.0832 108.521 45.9592C108.469 45.9364 108.443 45.8962 108.443 45.8385L108.445 41.8812C108.445 41.7975 108.487 41.7556 108.57 41.7556L108.731 41.754C108.748 41.7538 108.765 41.7569 108.78 41.7631C108.795 41.7693 108.809 41.7785 108.821 41.7902C108.833 41.8019 108.842 41.8158 108.849 41.8311C108.855 41.8465 108.859 41.8629 108.859 41.8796V45.0767C108.859 45.2866 108.908 45.2991 109.007 45.1143L110.738 41.8633C110.775 41.7948 110.832 41.7605 110.909 41.7605H111.325C111.396 41.7594 111.432 41.7948 111.432 41.8665L111.431 45.8434C111.431 45.9358 111.384 45.9853 111.292 45.9919L111.16 46.0016C111.06 46.0082 111.01 45.9614 111.01 45.8614L111.012 42.55Z" fill="#D9D9D9"/>
<path d="M114.081 45.0996C114.652 44.0991 115.195 43.0916 115.71 42.077C115.874 41.754 116.13 41.6594 116.477 41.7931C116.519 41.8094 116.541 41.8404 116.541 41.8861L116.531 45.845C116.531 45.8645 116.527 45.8837 116.519 45.9016C116.512 45.9195 116.501 45.9358 116.487 45.9494C116.473 45.9631 116.456 45.9739 116.438 45.9812C116.42 45.9884 116.401 45.9921 116.381 45.9919H116.231C116.192 45.9919 116.154 45.9762 116.126 45.9484C116.098 45.9205 116.083 45.8828 116.083 45.8434L116.089 42.5223C116.09 42.3146 116.043 42.3032 115.948 42.488C115.42 43.52 114.817 44.6347 114.139 45.832C114.04 46.0082 113.802 46.0261 113.631 45.969C113.57 45.9494 113.54 45.907 113.54 45.8418L113.542 41.922C113.542 41.8154 113.595 41.7605 113.701 41.7572L113.81 41.754C113.831 41.7536 113.852 41.7572 113.871 41.7648C113.89 41.7724 113.907 41.7838 113.922 41.7982C113.937 41.8126 113.948 41.8299 113.956 41.8489C113.964 41.8679 113.968 41.8883 113.968 41.909L113.96 45.067C113.96 45.2312 114 45.242 114.081 45.0996Z" fill="#D9D9D9"/>
<path d="M73.9466 45.6215L74.3196 45.6852C74.3506 45.6905 74.3795 45.7042 74.4033 45.7245C74.4271 45.7449 74.4449 45.7714 74.4548 45.801L74.4727 45.8581C74.4868 45.8983 74.4727 45.9201 74.4304 45.9233C73.9721 45.9592 73.523 45.9483 73.0832 45.8907C72.9344 45.8711 72.923 45.82 73.049 45.7374C73.1457 45.6743 73.2646 45.6509 73.4057 45.6672C73.4894 45.677 73.5312 45.64 73.5312 45.5563L73.5035 42.1667C73.5035 42.1134 73.4769 42.0862 73.4237 42.0851L73.0474 42.0786C73.0346 42.0786 73.022 42.0749 73.011 42.068C73.0001 42.0611 72.9912 42.0512 72.9855 42.0394L72.9562 41.9774C72.9105 41.885 72.9393 41.8339 73.0425 41.8241C73.5627 41.7719 74.0253 41.7757 74.4304 41.8355C74.489 41.8442 74.5048 41.8747 74.4776 41.9269L74.4581 41.9676C74.4222 42.0394 74.3647 42.0769 74.2854 42.0802L74.0166 42.09C73.9395 42.0933 73.902 42.1329 73.9042 42.2091C73.9281 43.0236 73.9303 43.9066 73.9107 44.8581C73.9064 45.0789 73.8906 45.2958 73.8635 45.509C73.8548 45.5732 73.8825 45.6107 73.9466 45.6215Z" fill="#D9D9D9"/>
</g>
<defs>
<clipPath id="clip0_572_319">
<rect width="144" height="46" fill="white"/>
</clipPath>
</defs>
</svg>
