<svg width="34" height="34" viewBox="0 0 34 34" fill="none" xmlns="http://www.w3.org/2000/svg">
<g clip-path="url(#clip0_572_354)">
<path d="M4.25 14.1667C4.25 15.4689 4.5065 16.7585 5.00486 17.9616C5.50322 19.1648 6.23368 20.258 7.15452 21.1788C8.07537 22.0997 9.16858 22.8301 10.3717 23.3285C11.5749 23.8268 12.8644 24.0833 14.1667 24.0833C15.4689 24.0833 16.7585 23.8268 17.9616 23.3285C19.1648 22.8301 20.258 22.0997 21.1788 21.1788C22.0997 20.258 22.8301 19.1648 23.3285 17.9616C23.8268 16.7585 24.0833 15.4689 24.0833 14.1667C24.0833 12.8644 23.8268 11.5749 23.3285 10.3717C22.8301 9.16858 22.0997 8.07537 21.1788 7.15452C20.258 6.23368 19.1648 5.50322 17.9616 5.00486C16.7585 4.5065 15.4689 4.25 14.1667 4.25C12.8644 4.25 11.5749 4.5065 10.3717 5.00486C9.16858 5.50322 8.07537 6.23368 7.15452 7.15452C6.23368 8.07537 5.50322 9.16858 5.00486 10.3717C4.5065 11.5749 4.25 12.8644 4.25 14.1667Z" stroke="white" stroke-width="1.5" stroke-linecap="round" stroke-linejoin="round"/>
<path d="M29.75 29.75L21.25 21.25" stroke="white" stroke-width="1.5" stroke-linecap="round" stroke-linejoin="round"/>
</g>
<defs>
<clipPath id="clip0_572_354">
<rect width="34" height="34" fill="white"/>
</clipPath>
</defs>
</svg>
