<svg width="20" height="20" viewBox="0 0 20 20" fill="none" xmlns="http://www.w3.org/2000/svg">
<path fill-rule="evenodd" clip-rule="evenodd" d="M13.4904 15.8557C13.6916 16.0052 13.9504 16.0416 14.1816 15.9506C14.4129 15.8596 14.5841 15.6542 14.6341 15.4046C15.1779 12.7499 16.4954 6.03004 16.9892 3.61588C17.0267 3.43387 16.9654 3.24537 16.8279 3.12317C16.6904 3.00226 16.4992 2.96716 16.3292 3.03216C13.7091 4.04099 5.63782 7.18966 2.33905 8.4598C2.12905 8.5404 1.99279 8.7497 2.00029 8.97981C2.00779 9.20991 2.15655 9.40882 2.3703 9.47512C3.85031 9.93533 5.79282 10.5762 5.79282 10.5762C5.79282 10.5762 6.69908 13.4272 7.17283 14.8767C7.23158 15.0575 7.36909 15.2018 7.54909 15.2499C7.73034 15.2993 7.92159 15.2486 8.05659 15.116C8.8166 14.3697 9.99161 13.2166 9.99161 13.2166C9.99161 13.2166 12.2241 14.9184 13.4904 15.8557ZM6.60908 10.2161L7.65909 13.8159L7.89159 11.5357C7.89159 11.5357 11.9454 7.73308 14.2566 5.56462C14.3254 5.50222 14.3341 5.39562 14.2779 5.32022C14.2216 5.24612 14.1204 5.22792 14.0429 5.27862C11.3641 7.05706 6.60908 10.2161 6.60908 10.2161Z" fill="black"/>
</svg>
