<svg width="26" height="26" viewBox="0 0 26 26" fill="none" xmlns="http://www.w3.org/2000/svg">
<path fill-rule="evenodd" clip-rule="evenodd" d="M19.9094 6.09692C18.075 4.26245 15.6375 3.25 13.0413 3.25C7.69019 3.25 3.33252 7.60449 3.33252 12.9556C3.32935 14.6663 3.77686 16.3357 4.62744 17.8083L3.25 22.8389L8.39795 21.4868C9.81348 22.2612 11.4131 22.6675 13.0381 22.6707H13.0413C18.3923 22.6707 22.7468 18.3162 22.75 12.9619C22.75 10.3689 21.7407 7.9314 19.9094 6.09692ZM13.0413 21.0298H13.0381C11.5908 21.0298 10.1689 20.6394 8.93115 19.9062L8.63599 19.7317L5.57959 20.5315L6.39526 17.5544L6.20483 17.2498C5.39551 15.9644 4.97022 14.479 4.97022 12.9556C4.97022 8.50903 8.59155 4.89087 13.0444 4.89087C15.1995 4.89087 17.2244 5.73193 18.7478 7.25537C20.2712 8.78198 21.1091 10.8069 21.1091 12.9619C21.1091 17.4116 17.4878 21.0298 13.0413 21.0298ZM17.4656 14.9868C17.2244 14.8662 16.031 14.2791 15.8088 14.1997C15.5867 14.1172 15.4248 14.0791 15.2629 14.3203C15.1011 14.5647 14.6377 15.1106 14.4949 15.2725C14.3552 15.4312 14.2124 15.4534 13.9712 15.3328C13.7268 15.2122 12.946 14.9551 12.0193 14.1267C11.2988 13.4856 10.8101 12.689 10.6704 12.4478C10.5276 12.2034 10.6545 12.0732 10.7751 11.9526C10.8862 11.8447 11.0195 11.6702 11.1401 11.5273C11.2607 11.3877 11.302 11.2861 11.3845 11.1243C11.4639 10.9624 11.4226 10.8196 11.3623 10.699C11.302 10.5784 10.8164 9.38184 10.6133 8.89624C10.4165 8.42334 10.2166 8.48999 10.0674 8.48047C9.92773 8.47412 9.76587 8.47412 9.604 8.47412C9.44214 8.47412 9.17871 8.53442 8.95654 8.77881C8.73438 9.02002 8.10913 9.60718 8.10913 10.8005C8.10913 11.9939 8.97876 13.1492 9.09937 13.311C9.21997 13.4697 10.8101 15.9199 13.2444 16.9705C13.822 17.2212 14.2727 17.3704 14.625 17.4814C15.2058 17.6655 15.7358 17.6401 16.1548 17.5798C16.6213 17.51 17.5894 16.9927 17.7925 16.4246C17.9924 15.8596 17.9924 15.374 17.9321 15.2725C17.8718 15.1709 17.71 15.1106 17.4656 14.9868Z" fill="black"/>
</svg>
