<svg width="192" height="47" viewBox="0 0 192 47" fill="none" xmlns="http://www.w3.org/2000/svg">
<path d="M147.706 13.2176C146.441 12.6715 145.083 12.4062 143.694 12.3906H143.633C142.09 12.4062 140.578 12.7027 139.174 13.3113C137.801 13.9042 136.567 14.7313 135.502 15.808C134.438 16.869 133.605 18.1174 133.018 19.5062C132.417 20.9418 132.108 22.471 132.093 24.047V24.0626V24.0938C132.093 25.6854 132.417 27.2459 133.018 28.6971C133.605 30.1015 134.453 31.3654 135.518 32.4577C136.582 33.55 137.832 34.4082 139.22 35.0168C140.655 35.641 142.182 35.9687 143.756 35.9843H143.802H143.818H143.849H143.864H143.88C145.623 35.9687 147.274 35.5629 148.832 34.8139C150.297 34.0961 151.563 33.0975 152.627 31.8335L149.711 29.4773C148.986 30.3199 148.138 30.9909 147.166 31.4746C146.117 31.9896 144.99 32.2704 143.818 32.2704C142.908 32.2704 142.028 32.0988 141.18 31.8023C140.362 31.5058 139.606 31.0845 138.912 30.5384C138.233 30.0078 137.647 29.3681 137.168 28.6347C136.69 27.9013 136.32 27.0898 136.088 26.2472L136.042 26.1068H154.016L154.031 22.8611C154.031 21.4411 153.753 20.0679 153.213 18.7884C152.689 17.54 151.948 16.4165 150.992 15.4647C150.051 14.4972 148.94 13.7482 147.706 13.2176ZM136.042 22.3773L136.073 22.2369C136.274 21.3943 136.613 20.5829 137.076 19.8495C137.539 19.1317 138.094 18.4919 138.757 17.9613C139.421 17.4308 140.161 17.0095 140.964 16.713C141.797 16.4165 142.661 16.2605 143.556 16.2605C145.191 16.2605 146.765 16.8847 147.968 17.9926C149.171 19.1005 149.927 20.6141 150.097 22.2369L150.112 22.3617H136.042V22.3773Z" fill="#9A9A9A"/>
<path d="M105.141 12.3906C98.7227 12.3906 93.5081 17.6024 93.4618 24.0782V47.0009H97.3959V32.3329C99.3552 34.4238 102.055 35.797 105.064 35.9999C105.094 35.9999 105.125 35.9999 105.141 35.9999C111.589 35.9999 116.819 30.71 116.819 24.1874C116.819 17.977 112.083 12.89 106.066 12.4218C106.035 12.4218 105.85 12.4062 105.819 12.4062C105.603 12.3906 105.372 12.3906 105.141 12.3906ZM112.839 24.5307C112.839 28.8219 109.399 32.3017 105.156 32.3017C100.913 32.3017 97.473 28.8219 97.473 24.5307C97.473 24.4215 97.473 24.3279 97.473 24.2186C97.473 24.125 97.473 24.0158 97.473 23.9066C97.473 19.6154 100.913 16.1356 105.156 16.1356C109.399 16.1356 112.839 19.6154 112.839 23.9066C112.839 24.0158 112.839 24.1094 112.839 24.2186C112.839 24.3279 112.839 24.4215 112.839 24.5307Z" fill="#9A9A9A"/>
<path d="M52.9017 31.2706V21.6272H65.5063V17.7729H52.9017V8.33237H67.0953V4.27527H48.8905V35.3277H68.2061V31.2706H52.9017Z" fill="#9A9A9A"/>
<path d="M91.7336 13.0293H87.0744L80.8416 21.2059L74.6242 13.0293H69.965L78.4657 24.1707L69.965 35.3278H74.6242L80.8416 27.1511L87.0744 35.3278H91.7336L83.2329 24.1707L91.7336 13.0293Z" fill="#9A9A9A"/>
<path d="M170.785 24.1718C170.122 23.6569 169.35 23.2512 168.456 22.9547C167.576 22.6582 166.635 22.4086 165.648 22.2057C164.923 22.0809 164.213 21.9248 163.534 21.722C162.855 21.5347 162.254 21.3007 161.729 21.051C161.204 20.8013 160.788 20.5048 160.495 20.1615C160.202 19.8339 160.047 19.4125 160.047 18.9444C160.047 18.4295 160.186 17.9769 160.448 17.5712C160.711 17.1655 161.05 16.8378 161.467 16.5882C161.883 16.3385 162.346 16.1356 162.871 16.0108C163.395 15.886 163.904 15.8236 164.413 15.8236C164.506 15.8236 164.614 15.8236 164.707 15.8236C166.62 15.886 168.317 16.8846 169.35 18.3671L172.282 16.3697C170.6 13.9511 167.838 12.3906 164.707 12.3906C163.611 12.3906 162.608 12.5311 161.621 12.8275C160.634 13.1084 159.754 13.5297 158.967 14.0759C158.181 14.622 157.548 15.3086 157.07 16.1356C156.592 16.9627 156.36 17.9301 156.36 19.0068C156.36 20.1615 156.576 21.0978 157.008 21.8312C157.44 22.5646 158.011 23.1732 158.721 23.6257C159.43 24.0938 160.263 24.4683 161.204 24.7492C162.146 25.0301 163.148 25.2953 164.197 25.5138C164.799 25.6386 165.385 25.7791 165.956 25.9507C166.527 26.1068 167.036 26.3252 167.468 26.6061C167.916 26.8714 168.27 27.1991 168.533 27.5892C168.795 27.9793 168.934 28.463 168.934 29.0716C168.934 29.6801 168.795 30.1951 168.502 30.632C168.224 31.0689 167.838 31.4278 167.36 31.7087C166.882 31.9896 166.357 32.208 165.771 32.3329C165.231 32.4577 164.707 32.5201 164.182 32.5201C161.791 32.5201 159.693 31.3654 158.412 29.5865L155.434 31.9272C157.533 34.3926 160.664 35.9687 164.151 35.9687C165.231 35.9531 166.249 35.8126 167.268 35.5786C168.332 35.3289 169.273 34.9076 170.122 34.3614C170.955 33.7997 171.634 33.0819 172.143 32.1768C172.652 31.2874 172.899 30.1951 172.899 28.9155C172.899 27.792 172.714 26.8558 172.328 26.0912C171.973 25.3265 171.449 24.6868 170.785 24.1718Z" fill="#9A9A9A"/>
<path d="M191.443 26.0912C191.057 25.3266 190.548 24.6868 189.869 24.1718C189.206 23.6569 188.435 23.2512 187.54 22.9547C186.66 22.6582 185.719 22.4086 184.732 22.2057C184.007 22.0809 183.297 21.9248 182.618 21.722C181.939 21.5347 181.338 21.3007 180.813 21.051C180.289 20.8013 179.872 20.5048 179.579 20.1615C179.286 19.8182 179.132 19.4125 179.132 18.9444C179.132 18.4295 179.27 17.977 179.533 17.5712C179.795 17.1655 180.134 16.8378 180.551 16.5882C180.967 16.3385 181.43 16.1356 181.955 16.0108C182.479 15.886 182.988 15.8236 183.498 15.8236C183.59 15.8236 183.698 15.8236 183.791 15.8236C185.704 15.886 187.401 16.8846 188.435 18.3671V18.3515L191.366 16.3697L191.35 16.3541H191.366C189.684 13.9511 186.923 12.3906 183.791 12.3906H183.744C182.695 12.3906 181.693 12.5311 180.705 12.8275C179.718 13.1084 178.838 13.5297 178.052 14.0759C177.265 14.622 176.632 15.3086 176.154 16.1356C175.676 16.9627 175.444 17.9301 175.444 19.0068C175.444 20.1615 175.66 21.0978 176.092 21.8312C176.524 22.5646 177.095 23.1732 177.805 23.6257C178.514 24.0938 179.348 24.4683 180.289 24.7492C181.245 25.0301 182.233 25.2953 183.282 25.5138C183.883 25.6386 184.47 25.7791 185.04 25.9507C185.611 26.1068 186.12 26.3252 186.552 26.5905C187 26.8558 187.355 27.1835 187.617 27.5736C187.879 27.9637 188.018 28.4474 188.018 29.056C188.018 29.6645 187.879 30.1795 187.586 30.6164C187.308 31.0533 186.923 31.4122 186.444 31.6931C185.966 31.974 185.442 32.1924 184.855 32.3173C184.315 32.4421 183.791 32.5045 183.266 32.5045H183.235C180.89 32.5045 178.792 31.3498 177.512 29.5709L174.534 31.9116C176.632 34.377 179.764 35.953 183.251 35.953V35.9374C184.331 35.9218 185.349 35.797 186.367 35.5629C187.432 35.3133 188.373 34.892 189.221 34.3458C190.054 33.7841 190.733 33.0663 191.242 32.1612C191.751 31.2718 191.998 30.1795 191.998 28.8999C192.014 27.8076 191.829 26.8558 191.443 26.0912Z" fill="#9A9A9A"/>
<path d="M123.608 12.9679H119.674V23.61C119.674 23.7816 119.674 23.9533 119.674 24.1249V35.3288H123.608V24.1405C123.608 19.8182 127.079 16.3072 131.337 16.3072V12.3281C128.39 12.3281 125.691 13.4516 123.608 15.2929V12.9679Z" fill="#9A9A9A"/>
<path d="M33.8333 4.27527H29.8992V35.3277H33.8333V4.27527Z" fill="#9A9A9A"/>
<path d="M15.8288 4.25989H11.7867L-0.00012207 35.328H3.8414L6.68012 27.8691H20.9354L23.7741 35.328H27.6157L15.8288 4.25989ZM8.2229 23.7808L13.8078 9.0504L19.3926 23.7808H8.2229Z" fill="#9A9A9A"/>
<path d="M43.2904 13.1543H39.3563V35.3279H43.2904V13.1543Z" fill="#9A9A9A"/>
<path d="M41.3308 0C41.2382 0 41.1611 0.0780174 41.1611 0.171643C41.1611 3.37051 38.6001 5.97643 35.4528 5.97643C35.3602 5.97643 35.2831 6.05444 35.2831 6.14807C35.2831 6.24169 35.3602 6.31972 35.4528 6.31972C38.6001 6.31972 41.1611 8.92562 41.1611 12.1245C41.1611 12.2181 41.2382 12.2961 41.3308 12.2961C41.4234 12.2961 41.5005 12.2181 41.5005 12.1245C41.5159 8.94123 44.0769 6.33532 47.2088 6.33532C47.3013 6.33532 47.3785 6.2573 47.3785 6.16368C47.3785 6.07005 47.3013 5.99203 47.2088 5.99203C44.0615 5.99203 41.5005 3.38612 41.5005 0.187243V0.171643C41.5005 0.12483 41.4851 0.0780194 41.4542 0.0468109C41.4079 0.0156023 41.3771 0 41.3308 0Z" fill="#9A9A9A"/>
</svg>
