<svg width="162" height="46" viewBox="0 0 162 46" fill="none" xmlns="http://www.w3.org/2000/svg">
<path d="M37.4286 39.1931C27.783 48.9261 11.9096 47.3511 4.19432 36.2155C1.12046 31.7787 -0.263859 26.832 0.0413519 21.3755C0.692547 9.71808 10.2345 -0.13604 22.1692 0.00142104C27.1193 0.0581142 31.5511 1.62766 35.4645 4.71006C35.581 4.8017 35.6831 4.89606 35.7709 4.99314C35.7822 5.00595 35.7908 5.02097 35.7962 5.03726C35.8015 5.05355 35.8034 5.07076 35.8017 5.08781C35.8001 5.10486 35.7949 5.12139 35.7866 5.13637C35.7783 5.15135 35.767 5.16445 35.7534 5.17486C34.5131 6.127 33.2837 7.06438 32.0652 7.987C31.866 8.13728 31.6726 8.35046 31.414 8.18155C28.4971 6.27805 25.5113 5.30184 22.0981 5.28087C16.9584 5.25059 12.0867 7.68179 8.93791 11.7066C3.17151 19.0771 3.9392 29.7024 10.8973 36.035C17.365 41.9225 27.2611 41.7944 33.5761 35.6785C37.0045 32.3585 39.2191 27.4646 38.9523 22.5731C38.9465 22.4542 39.0129 22.3354 39.1154 22.2585C40.6236 21.1107 42.1123 19.9772 43.5817 18.8581C43.5996 18.8443 43.6208 18.8354 43.6432 18.8322C43.6656 18.8291 43.6885 18.8318 43.7095 18.8401C43.7305 18.8485 43.749 18.8621 43.7632 18.8798C43.7773 18.8974 43.7867 18.9185 43.7902 18.9408C44.9843 26.3486 42.6917 33.8822 37.4286 39.1931Z" fill="#9A9A9A"/>
<path d="M69.7917 36.8352C60.414 35.8089 55.378 26.6956 58.0806 18.0286C59.7337 12.7281 64.3631 9.39528 69.7847 8.81747C73.7641 8.39344 77.6794 9.34751 80.7303 11.9849C80.8383 12.0773 80.9249 12.1616 80.9901 12.2377C81.0001 12.2496 81.0076 12.2634 81.0122 12.2782C81.0167 12.2931 81.0182 12.3087 81.0166 12.3241C81.015 12.3396 81.0102 12.3545 81.0027 12.3681C80.9951 12.3817 80.9849 12.3936 80.9726 12.4031L77.027 15.3947C76.996 15.418 76.9645 15.4187 76.9327 15.397C75.0781 14.0985 73.008 13.568 70.7224 13.8057C59.8525 14.9345 60.3884 31.6594 71.5181 31.8854C73.9283 31.9343 75.8015 31.1736 77.8297 29.9726C77.8747 29.9458 77.9266 29.9332 77.9788 29.9363C78.0309 29.9394 78.0808 29.9581 78.1221 29.99L81.5656 32.6216C81.5807 32.6329 81.5917 32.6489 81.597 32.6672C81.6022 32.6855 81.6014 32.705 81.5947 32.723C81.5458 32.8534 81.4848 32.9552 81.4118 33.0282C78.3376 36.0768 74.0856 37.3058 69.7917 36.8352Z" fill="#9A9A9A"/>
<path d="M21.9578 28.6706L13.7218 23.3283C13.6892 23.3065 13.6729 23.2758 13.6729 23.2362V16.8396C13.6728 16.8299 13.6753 16.8204 13.6802 16.8121C13.6851 16.8037 13.6922 16.7968 13.7006 16.7922C13.7091 16.7875 13.7187 16.7853 13.7284 16.7856C13.738 16.786 13.7474 16.7889 13.7556 16.7942L21.9229 22.0923C21.9608 22.1164 22.0052 22.1284 22.05 22.1265C22.0948 22.1246 22.1378 22.109 22.1733 22.0818L39.3782 8.96236C39.3936 8.95037 39.4112 8.9416 39.4301 8.93657C39.449 8.93154 39.4688 8.93034 39.4882 8.93306C39.5076 8.93577 39.5263 8.94233 39.5432 8.95237C39.5601 8.9624 39.5749 8.9757 39.5867 8.99149C40.5637 10.3164 41.3981 11.738 42.0901 13.2563C42.1484 13.3852 42.1181 13.4901 41.9992 13.5708C41.7018 13.7735 41.409 13.984 41.1209 14.2022C34.8155 19.0009 28.4865 23.8218 22.1337 28.6648C22.0763 28.7083 22.0176 28.7102 21.9578 28.6706Z" fill="#9A9A9A"/>
<path d="M86.6094 36.5004C86.5738 36.4939 86.5415 36.4752 86.5183 36.4475C86.4951 36.4198 86.4824 36.385 86.4824 36.349V9.3378C86.4824 9.26427 86.5116 9.19375 86.5636 9.14175C86.6156 9.08976 86.6861 9.06055 86.7597 9.06055H109.247C109.261 9.06055 109.274 9.06478 109.285 9.07264C109.296 9.0805 109.304 9.0916 109.308 9.10436C109.312 9.11711 109.313 9.13089 109.309 9.14372C109.305 9.15656 109.297 9.16781 109.286 9.17587L103.417 13.641C103.35 13.6924 103.268 13.7203 103.184 13.7203H92.3653C92.3499 13.7203 92.335 13.7264 92.3241 13.7373C92.3132 13.7482 92.3071 13.7631 92.3071 13.7785V19.7173C92.3071 19.7334 92.3134 19.7488 92.3248 19.7601C92.3362 19.7715 92.3516 19.7779 92.3676 19.7779C94.7643 19.7787 97.171 19.7787 99.5879 19.7779C103.634 19.7767 107.936 21.3867 108.848 25.8355C109.63 29.6413 108.336 33.6335 104.645 35.3518C102.625 36.2931 100.501 36.5412 98.2121 36.547C94.5356 36.5563 90.8587 36.5579 87.1814 36.5517C86.9787 36.5509 86.788 36.5338 86.6094 36.5004ZM103.497 27.315C103.146 25.154 100.985 24.4947 99.1231 24.3887C96.8771 24.2605 94.6066 24.3211 92.3676 24.3211C92.3516 24.3211 92.3362 24.3275 92.3248 24.3388C92.3134 24.3502 92.3071 24.3656 92.3071 24.3817V31.9502C92.3071 31.9666 92.3136 31.9823 92.3251 31.9939C92.3367 32.0055 92.3524 32.012 92.3688 32.012C94.3337 32.0143 96.3004 32.0026 98.2692 31.977C101.247 31.9386 104.103 31.0323 103.497 27.315Z" fill="#9A9A9A"/>
<path d="M127.219 13.7261C124.876 13.7175 122.532 13.7164 120.187 13.7226C120.177 13.7226 120.167 13.7268 120.159 13.7342C120.152 13.7416 120.148 13.7517 120.148 13.7622V20.2998C120.148 20.3158 120.154 20.3312 120.166 20.3426C120.177 20.354 120.192 20.3603 120.208 20.3603C124.035 20.3603 127.871 20.3603 131.717 20.3603C131.858 20.3603 132.008 20.4 132.143 20.3976C132.174 20.397 132.205 20.4025 132.233 20.4139C132.262 20.4253 132.288 20.4423 132.31 20.4639C132.332 20.4854 132.35 20.5112 132.362 20.5396C132.373 20.5681 132.38 20.5986 132.38 20.6294V24.8453C132.38 24.8608 132.373 24.8756 132.363 24.8865C132.352 24.8974 132.337 24.9036 132.321 24.9036H120.206C120.191 24.9036 120.176 24.9097 120.165 24.9206C120.154 24.9316 120.148 24.9464 120.148 24.9618V31.9514C120.148 31.9668 120.154 31.9816 120.165 31.9926C120.176 32.0035 120.191 32.0096 120.206 32.0096H134.418C134.457 32.0096 134.476 32.029 134.476 32.0679V36.4946C134.476 36.5101 134.47 36.5249 134.459 36.5358C134.449 36.5467 134.434 36.5528 134.418 36.5528H114.614C114.537 36.5528 114.463 36.5222 114.409 36.4675C114.354 36.4129 114.323 36.3389 114.323 36.2616V9.32266C114.323 9.25314 114.351 9.18647 114.4 9.13732C114.449 9.08816 114.516 9.06055 114.585 9.06055H134.157C134.394 9.06055 134.418 9.13161 134.228 9.27373C132.304 10.719 130.451 12.1297 128.669 13.5059C128.238 13.8391 127.72 13.7284 127.219 13.7261Z" fill="#9A9A9A"/>
<path d="M154.659 9.54338C159.531 10.6955 162.251 14.633 161.982 19.5699C161.77 23.4794 159.682 26.3999 156.126 27.8316C154.654 28.4234 153.168 28.7251 151.666 28.7367C149.667 28.7515 147.655 28.7538 145.631 28.7437C145.619 28.7436 145.608 28.7457 145.597 28.75C145.586 28.7544 145.577 28.7608 145.568 28.7689C145.56 28.777 145.554 28.7867 145.549 28.7974C145.545 28.8081 145.542 28.8195 145.542 28.8311V36.494C145.542 36.5094 145.536 36.5243 145.525 36.5352C145.514 36.5461 145.5 36.5522 145.484 36.5522H140.009C139.932 36.5522 139.858 36.5216 139.803 36.4669C139.748 36.4123 139.718 36.3382 139.718 36.261V9.34767C139.718 9.27198 139.748 9.19938 139.801 9.14586C139.855 9.09234 139.927 9.06227 140.003 9.06227C143.612 9.05605 147.245 9.058 150.901 9.06809C152.082 9.0712 153.335 9.22963 154.659 9.54338ZM156.186 20.1594C156.678 17.3764 155.579 14.6143 152.608 13.8769C152.184 13.7713 151.469 13.7189 150.462 13.7196C148.836 13.7196 147.216 13.7196 145.603 13.7196C145.587 13.7196 145.572 13.726 145.56 13.7374C145.549 13.7488 145.542 13.7642 145.542 13.7802V24.1434C145.542 24.1595 145.549 24.1749 145.56 24.1863C145.572 24.1976 145.587 24.204 145.603 24.204C147.117 24.204 148.634 24.204 150.152 24.204C153.031 24.204 155.619 23.3687 156.186 20.1594Z" fill="#9A9A9A"/>
</svg>
