<svg width="210" height="50" viewBox="0 0 210 50" fill="none" xmlns="http://www.w3.org/2000/svg">
<g clip-path="url(#clip0_220_2623)">
<path fill-rule="evenodd" clip-rule="evenodd" d="M-37 25.0032C-37 29.9485 -35.5544 34.7828 -32.8461 38.8946C-30.1377 43.0064 -26.2883 46.2112 -21.7845 48.1035C-17.2808 49.9958 -12.325 50.4908 -7.54396 49.5258C-2.76291 48.5608 1.62868 46.1791 5.07544 42.682C8.52219 39.1849 10.8693 34.7295 11.8199 29.8791C12.7706 25.0288 12.282 20.0014 10.4161 15.4327C8.55017 10.864 5.39067 6.95924 1.33714 4.21223C-2.71638 1.46523 -7.48185 -0.000638061 -12.3566 2.08347e-07C-18.8907 0.00768848 -25.1549 2.64452 -29.7749 7.33196C-34.3949 12.0194 -36.9933 18.3746 -37 25.0032V25.0032ZM-36.1507 25.0032C-36.1519 20.2281 -34.7572 15.5598 -32.143 11.5888C-29.5287 7.61779 -25.8124 4.5225 -21.4639 2.69438C-17.1155 0.866269 -12.3303 0.387452 -7.71356 1.31849C-3.09684 2.24954 1.144 4.54861 4.47262 7.92494C7.80123 11.3013 10.0681 15.6032 10.9865 20.2866C11.9048 24.97 11.4335 29.8245 9.63203 34.2361C7.83057 38.6477 4.77993 42.4183 0.86594 45.0709C-3.04805 47.7235 -7.64956 49.139 -12.3566 49.1384C-18.6641 49.1298 -24.7108 46.5844 -29.1711 42.0601C-33.6315 37.5358 -36.1414 31.4019 -36.1507 25.0032Z" fill="#9A9A9A"/>
<path fill-rule="evenodd" clip-rule="evenodd" d="M-29.3258 18.149C-23.0242 13.9538 -16.0578 11.5141 -4.24984 13.5827C-3.59773 13.1987 -3.24145 12.8405 -3.07286 12.0531C-6.02167 10.9784 -9.21541 10.5977 -13.3539 10.6654C-17.0694 10.7719 -23.7559 12.1692 -27.3282 14.3152L-26.2402 12.9373C-23.74 11.456 -17.2348 9.47786 -12.3583 9.38751C-8.91321 9.32297 -7.12866 9.51659 -3.04105 10.6364C-3.39732 9.9232 -4.24984 9.56822 -5.48407 9.00349C-9.44127 7.20279 -16.8371 7.03498 -22.897 9.74248C-22.1022 9.1958 -21.2662 8.71348 -20.3967 8.29999C-18.4022 7.37705 -15.1353 6.4767 -11.0413 6.55092C-7.77759 6.60256 -3.90311 7.75784 -1.52688 10.1459C-1.18727 10.5449 -0.939508 11.0156 -0.801607 11.5238C1.08156 12.4919 2.16629 13.3923 2.78341 14.4637C3.05023 15.0273 3.13484 15.662 3.02516 16.2773C3.63554 16.6209 4.16177 17.0996 4.56478 17.6778C4.84326 18.0846 5.02708 18.5503 5.10237 19.0396C5.18512 19.3959 5.18569 19.7668 5.10403 20.1233C5.02237 20.4799 4.86069 20.8125 4.63158 21.0953C5.22625 21.4582 5.66543 22.0338 5.86264 22.7088C6.15847 24.1481 5.2487 25.5486 4.04309 26.6361C2.66253 27.8689 -0.388075 29.3275 -2.87245 29.9729C-7.81258 31.2314 -12.1674 31.7704 -15.6411 32.4158C-13.3147 33.0221 -10.9206 33.3193 -8.51877 33.3C-1.15788 33.3 5.35685 29.7664 5.35685 29.7664C5.35685 29.7664 5.20734 30.2311 5.0642 30.6377C0.391277 33.5033 -7.06186 34.7199 -10.2302 34.5714C-13.1433 34.4603 -16.0301 33.9679 -18.8189 33.1064C-19.6366 33.3136 -20.4357 33.59 -21.2079 33.9325C-17.1616 35.7977 -14.111 36.2172 -10.6501 36.469C-7.12866 36.7336 -1.29149 35.8752 3.64228 34.0648C3.41643 34.2875 3.29873 34.6521 3.0697 34.8651C0.550327 36.2043 -4.78743 37.5565 -7.46903 37.6694C-10.3943 37.814 -13.3264 37.6355 -16.2137 37.137C-18.4564 36.6679 -20.6374 35.9346 -22.7125 34.9522C-22.8834 35.0746 -23.028 35.2309 -23.1374 35.4118C-23.2468 35.5927 -23.3187 35.7943 -23.3487 36.0043C-15.2371 40.3027 -7.63445 40.3963 1.00839 37.6759L0.21632 38.4633C-9.32675 42.3745 -16.7608 40.8545 -22.5153 38.0405C-22.7168 37.9602 -22.9124 37.8653 -23.1006 37.7566C-22.5725 38.6989 -18.17 41.9517 -13.2394 42.3648C-9.84844 42.6488 -5.70993 42.0421 -3.25418 41.074L-4.68882 41.8323C-7.42488 43.1366 -10.4481 43.6971 -13.4621 43.4588C-19.3311 43.0586 -22.633 40.4286 -24.1153 39.0506C-24.7522 38.4306 -25.1788 37.6216 -25.3337 36.74C-26.5034 36.1864 -27.4956 35.3095 -28.1966 34.21C-28.6069 33.5646 -28.5147 32.8514 -28.4192 32.2447C-28.3887 32.0598 -28.3375 31.879 -28.2666 31.7058C-28.9028 31.2347 -29.539 30.7377 -29.8253 30.2311C-30.4042 29.1694 -30.0447 28.2561 -29.6471 27.5494C-29.9882 27.1991 -30.2641 26.7891 -30.4615 26.3392C-30.6064 25.8646 -30.654 25.3649 -30.6014 24.8709C-30.4515 23.9642 -30.0397 23.1229 -29.4181 22.4539C-28.1457 20.9533 -26.1194 19.7883 -22.6616 18.6266C-19.2833 17.4906 -17.9219 17.3357 -15.3739 16.7226C-12.3773 16.0191 -8.81779 15.8126 -5.82762 14.7412C-14.1333 13.26 -22.7634 14.6024 -29.7966 19.514L-29.3195 18.149H-29.3258ZM-1.03382 12.9502C-1.13561 13.3665 -1.57778 13.8441 -1.87997 14.17C-0.967552 14.4269 -0.0692348 14.7328 0.811172 15.0865C0.706198 14.2733 -0.232204 13.473 -1.03382 12.9502ZM-26.622 29.7857C-27.0859 29.534 -27.5361 29.2571 -27.9707 28.9564C-28.2125 29.4888 -27.7576 30.0762 -27.2741 30.3601C-27.0705 30.1504 -26.8319 29.9793 -26.622 29.7857ZM1.37103 18.7718C1.94624 19.0262 2.50137 19.3251 3.03152 19.6657C3.40688 18.9396 3.17467 18.4652 2.39532 17.794C2.09126 18.1528 1.74998 18.4774 1.37739 18.7621L1.37103 18.7718ZM-0.403978 19.8787C-2.15626 20.6384 -3.97117 21.2399 -5.82762 21.6761C-7.86666 22.1925 -12.8481 22.9153 -18.1954 24.0964C-19.8941 24.4675 -24.4748 25.568 -26.7301 27.5139C-26.1941 27.9172 -25.6185 28.2632 -25.0124 28.5465C-23.7468 27.772 -22.3698 27.2026 -20.9311 26.8588C-18.0717 26.1078 -15.1722 25.5239 -12.2469 25.1097C-9.31084 24.645 -3.80449 23.4768 -0.750711 22.3667C0.181889 22.044 1.06124 21.5805 1.85773 20.992C1.6446 20.75 -0.31809 19.7915 -0.368988 19.8787H-0.403978ZM-23.5109 32.8385C-22.9921 32.5322 -22.4508 32.2668 -21.8918 32.0447C-22.7401 31.6832 -23.6148 31.2938 -24.5161 30.8765C-24.8858 31.1081 -25.2321 31.3762 -25.55 31.6768C-24.8692 32.0769 -24.1917 32.4706 -23.4982 32.8385H-23.5109ZM-26.3325 33.1225C-26.3325 33.6743 -26.0144 34.1745 -25.2764 34.7812C-25.1831 34.4849 -25.034 34.2099 -24.8374 33.9712C-25.3464 33.7098 -25.849 33.4194 -26.3325 33.1225ZM-22.1972 22.8282C-16.1882 21.0404 -9.87388 20.4886 -3.48321 18.7686C-5.96759 18.0715 -7.33543 17.794 -9.96295 18.1038C-13.9057 18.5778 -17.8037 19.3775 -21.6182 20.495C-23.0338 20.9275 -30.4837 23.0767 -28.3365 26.0585C-28.3365 26.0972 -27.0641 24.2804 -22.1717 22.8314L-22.1972 22.8282ZM0.359465 16.5871C-0.773844 16.0835 -1.94367 15.6693 -3.13966 15.3479C-3.81148 15.8869 -4.56297 16.3149 -5.36638 16.6161C-3.94515 16.9105 -2.54206 17.2887 -1.16424 17.7488C-0.916124 17.8747 0.187689 16.8226 0.359465 16.5742V16.5871ZM3.32418 22.4571C3.13968 22.6152 2.94246 22.7798 2.7166 22.9411C1.35513 24.0061 -0.782522 24.858 -3.77587 25.6615C-9.96295 27.3525 -14.4546 27.5978 -19.5665 28.8692C-20.588 29.1215 -21.5896 29.4505 -22.563 29.8535C-21.6087 30.3408 -20.5748 30.7958 -19.5219 31.2024C-17.5305 30.5931 -15.4991 30.1273 -13.443 29.8083C-12.301 29.6082 -8.77325 28.9854 -6.22207 28.4368C-1.62231 27.4397 5.11827 25.284 3.321 22.4571H3.32418Z" fill="#9A9A9A"/>
<path fill-rule="evenodd" clip-rule="evenodd" d="M36.6523 36.7884H42.1396L42.8044 32.7062H46.5803L47.2419 36.7884H52.726L48.0944 13.1728H41.2871L36.6523 36.7884ZM157.913 36.8304H163.403L164.065 32.7481H167.838L168.506 36.8304H173.987L169.352 13.2309H162.541L157.913 36.8562V36.8304ZM143.147 36.7884H149.604C151.001 36.7884 156.841 36.2011 156.857 29.0435C156.857 23.0024 152.324 21.944 149.394 21.944H148.44V18.8492H155.588V13.1728H143.147V36.7884ZM111.044 37.0821C117.45 37.0821 119.61 31.012 119.61 24.9516C119.61 18.8912 117.45 12.8243 111.044 12.8243C104.637 12.8243 102.477 18.8879 102.477 24.9516C102.477 31.0152 104.637 37.0821 111.044 37.0821ZM86.8139 36.7884H92.2216V29.0112H94.0348C99.3884 29.0112 101.033 24.1351 101.033 21.0404C101.033 17.9456 99.1467 13.1728 94.0348 13.1793H86.8139V36.7884ZM44.6908 20.3078L45.7055 27.5171H43.6696L44.6908 20.3078ZM165.948 20.3498L166.969 27.5558H164.927L165.948 20.3498ZM122.206 13.1793H126.793L130.846 18.7427L134.924 13.1793H139.504V36.8046H134.097V22.3893L130.846 26.5264L127.607 22.3893V36.8078H122.2V13.1793H122.206ZM26.1963 13.1793H37.2758V19.0783H31.709V36.8271H26.2058V13.1793H26.1963ZM194.208 13.1793H199.498V21.6858H200.647L203.681 13.1793H209.43L205.294 24.3933L209.999 36.7884H203.78L200.742 27.3009H199.489V36.7981H194.208V13.1728V13.1793ZM176.306 13.1793H181.596V21.6826H185.371V13.1728H190.655V36.7884H185.371V27.3525H181.596V36.7884H176.306V13.1728V13.1793ZM148.453 32.0737V26.6974H149.241C149.878 26.6974 151.579 26.7329 151.579 29.1597C151.579 31.6574 149.871 32.064 149.241 32.064L148.453 32.0737ZM111.044 31.3766C109.135 31.3766 108.155 29.1177 108.155 24.9613C108.155 20.8048 109.145 18.5459 111.044 18.5459C112.943 18.5459 113.929 20.8048 113.929 24.9613C113.929 29.1177 112.949 31.3766 111.044 31.3766ZM92.2248 18.3942H93.4972C94.7282 18.3942 95.4917 19.1364 95.4917 21.0952C95.4917 23.6543 94.197 23.8286 93.4972 23.8286H92.2248V18.3942ZM68.9842 13.1728H83.7283V36.7884H78.3205V18.8653H74.3888V36.8046H68.981V13.1728H68.9842ZM57.892 22.328C58.7636 22.328 60.3796 21.7568 60.3796 20.0206C60.3796 17.9585 58.5218 17.8198 58.0001 17.8198C56.9719 17.8229 55.9564 18.0507 55.0227 18.4878L54.9814 13.3761C56.5193 12.9508 58.108 12.7445 59.702 12.763C64.1141 12.763 66.1054 15.9094 66.1054 18.9589C66.1054 21.9472 64.394 23.7672 62.7621 24.4449V24.674C64.3272 25.1742 66.4585 26.72 66.4585 30.344C66.4585 34.7941 63.3888 37.2596 59.4602 37.2596C57.348 37.2596 55.9834 36.9369 54.3452 36.0301L54.4374 31.1217C55.562 31.6342 56.7871 31.8792 58.0192 31.8381C59.7561 31.8381 60.4527 30.5473 60.4527 29.5792C60.4527 28.2496 59.6225 27.3622 57.7807 27.3622H55.573V22.328H57.892Z" fill="#9A9A9A"/>
</g>
<defs>
<clipPath id="clip0_220_2623">
<rect width="247" height="50" fill="white" transform="translate(-37)"/>
</clipPath>
</defs>
</svg>
