<svg width="145" height="42" viewBox="0 0 145 42" fill="none" xmlns="http://www.w3.org/2000/svg">
<g clip-path="url(#clip0_220_1916)">
<path d="M138.243 36.5726C141.088 36.5726 143.103 36.0575 144.604 34.9481V29.916C143.064 30.9858 141.207 31.6594 138.599 31.6594C134.213 31.6594 132.396 28.2518 132.396 22.8632C132.396 17.1971 134.609 14.3047 138.639 14.3047C141.009 14.3047 143.34 15.1367 144.565 15.9292V10.699C143.261 9.9858 141.009 9.4707 137.927 9.4707C130.065 9.4707 125.995 15.1367 125.995 23.0613C126.035 31.7386 130.025 36.5726 138.243 36.5726ZM99.8006 34.2745V29.2424C97.9042 30.5499 94.6644 31.699 91.7012 31.699C87.1971 31.699 85.4982 29.5594 85.2216 25.2009H100.077V21.9518C100.077 12.8783 96.0867 9.4707 89.9628 9.4707C82.456 9.4707 78.9001 15.216 78.9001 23.1009C78.9001 32.1745 83.3647 36.5726 91.1876 36.5726C95.099 36.5726 97.9832 35.5028 99.8006 34.2745ZM43.4205 9.94618V20.2481H35.2025V9.94618H29.0391V36.0575H35.2025V25.1613H43.4205V36.0575H49.584V9.94618H43.4205ZM77.3592 31.1443H74.6331V9.94618H56.6957V12.165C56.6957 18.5443 56.3006 26.7858 54.1276 31.1443H52.1521V42.0009H57.8415V36.0575H71.6303V42.0009H77.3197V31.1443H77.3592ZM119.437 36.0575H126.43L116.553 21.9915L125.245 9.94618H119.042L110.35 21.9915V9.94618H104.186V36.0575H110.35V23.2198L119.437 36.0575ZM89.8047 14.3047C92.847 14.3047 93.7952 16.8405 93.7952 20.1292V20.6443H85.2216C85.3797 16.4839 86.881 14.3047 89.8047 14.3047ZM68.4696 31.1443H59.7775C61.4764 27.2216 61.9505 20.0896 61.9505 15.5726V14.7801H68.4696V31.1443Z" fill="#9A9A9A"/>
<path d="M23.9033 36.0566H17.6213V4.87358H14.8161C9.67984 4.87358 6.99319 7.44906 6.99319 11.2925C6.99319 15.6509 8.85013 17.6717 12.6826 20.2472L15.8433 22.3868L6.75613 36.0566H0L8.17847 23.8528C3.47684 20.4849 0.8297 17.1962 0.8297 11.6491C0.8297 4.71509 5.64986 0 14.7766 0H23.8638V36.0566H23.9033Z" fill="#9A9A9A"/>
</g>
<defs>
<clipPath id="clip0_220_1916">
<rect width="145" height="42" fill="white"/>
</clipPath>
</defs>
</svg>
