<svg width="138" height="38" viewBox="0 0 138 38" fill="none" xmlns="http://www.w3.org/2000/svg">
<path fill-rule="evenodd" clip-rule="evenodd" d="M24.8486 2H31.0474C34.6246 2.26693 38.5661 2.61395 41.4041 5.08308C43.3366 6.75142 43.6982 9.54888 43.1861 11.9406C45.1072 8.75423 47.9079 6.20541 51.2434 4.60794C54.8549 2.84885 58.8782 2.17084 62.8594 2H66.3864C68.1552 2.17885 70.1616 1.87988 71.6664 3.03036C72.7224 3.85786 72.5878 5.33667 72.8016 6.5352C72.8465 7.19987 73.1791 8.17417 72.4109 8.55322C68.377 8.33967 64.2982 7.83517 60.2669 8.45445C57.3761 8.89756 54.4906 10.0828 52.4868 12.2956C50.3484 14.5859 49.3954 17.701 48.8462 20.7334C48.6113 22.311 48.4397 24.1235 49.4112 25.4982C50.557 26.9183 52.463 27.3133 54.1632 27.5829C58.9152 28.1755 63.7174 27.5295 68.4799 27.2813C67.3658 23.9313 68.0364 20.3116 69.1082 17.0444C70.4784 12.8108 73.0366 8.88956 76.6956 6.34034C80.9698 3.31064 86.2471 2.21355 91.3687 2H95.4528C98.4017 2.20287 101.411 2.4351 104.186 3.54822C105.696 4.16216 107.188 5.14982 107.882 6.68202C108.331 7.62162 108.349 8.69203 108.283 9.71438C110.1 6.51118 113.283 4.32232 116.715 3.24124C119.073 2.45913 121.549 2.17351 124.012 2H128.236C129.973 2.09076 131.755 1.95462 133.448 2.43777C134.155 2.61395 134.652 3.18785 134.982 3.81515V4.45579C134.583 5.62763 134.205 6.81548 133.701 7.94461C133.437 8.57724 132.693 8.70804 132.088 8.65199C129.614 8.54788 127.141 8.59326 124.67 8.53987C122.6 8.53987 120.401 8.60127 118.558 9.67167C117.495 10.294 116.718 11.3158 116.396 12.5145C114.488 19.2412 112.582 25.9689 110.678 32.6974C110.604 33.0506 110.407 33.3652 110.123 33.5838C109.839 33.8024 109.487 33.9104 109.131 33.8879C106.934 33.9173 104.735 33.8879 102.531 33.9012C102.003 33.9012 101.29 33.8452 101.176 33.2045C101.234 32.4731 101.496 31.7818 101.688 31.0691C103.32 25.4021 104.904 19.7137 106.546 14.0414C105.386 15.573 103.903 16.8248 102.206 17.7064C99.2808 19.2573 96.0151 20.0047 92.76 20.4585C87.385 21.1614 82.0073 21.8599 76.627 22.5539C76.6745 23.7631 76.8725 25.0684 77.7516 25.968C79.0294 27.3347 81.0041 27.5242 82.7491 27.687C88.3855 28.1034 94.0219 27.4681 99.6451 27.324C99.9698 27.2626 100.39 27.4815 100.284 27.8579C99.9857 29.1205 99.5395 30.343 99.2069 31.5949C98.8663 32.7855 97.5701 33.2953 96.4692 33.4635C93.9269 33.8345 91.3476 33.8372 88.7842 33.9066C84.2328 33.9386 79.5653 34.2349 75.1538 32.8816C72.8544 32.1955 70.6658 30.8956 69.2878 28.8775C69.0449 29.9453 69.0238 31.1145 68.4166 32.0594C67.6246 33.1698 66.1541 33.3433 64.9159 33.5622C61.6344 33.96 58.3159 33.9733 55.0186 33.9893C50.8738 33.9893 46.362 33.6343 42.93 31.0264C40.591 29.2673 39.6194 26.2402 39.6722 23.3814C38.9198 25.8185 38.1965 28.2689 37.3913 30.69C36.8923 32.0567 35.3796 32.5586 34.0939 32.8015C29.4977 33.6396 24.817 33.8692 20.1521 33.9466C16.5036 33.9867 12.805 33.9173 9.24624 33.0177C7.36392 32.5078 5.42352 31.7444 4.13784 30.1989C3.50669 29.4193 3.11159 28.472 3 27.4708L3 26.2296C3.14395 24.6981 3.66988 23.2286 4.52856 21.9586C5.7324 20.2129 7.5276 18.985 9.40464 18.0828C12.4512 16.652 15.7723 15.9473 19.0829 15.4775C23.6844 14.9009 28.2648 14.1668 32.832 13.4061C34.8701 13.2539 35.2502 10.1602 33.7481 9.06573C32.0611 7.7978 29.8382 7.73106 27.8213 7.61094C22.6891 7.57357 17.5781 8.11545 12.4723 8.56123C12.0957 8.56926 11.719 8.55053 11.345 8.50517C11.5034 7.21321 11.9654 5.98799 12.3773 4.7681C12.8842 3.4014 14.3335 2.73407 15.672 2.54988C18.708 2.12012 21.7862 2.10677 24.8486 2ZM81.7882 10.1255C79.6973 12.026 78.7046 14.7915 77.9285 17.4501C82.2554 16.8202 86.5877 16.2142 90.9146 15.5816C93.193 15.2025 95.5294 14.7301 97.5278 13.4995C98.6208 12.8242 99.5659 11.631 99.4154 10.2669C99.2597 9.05772 98.04 8.44378 97.0025 8.14481C94.4998 7.47214 91.873 7.56023 89.3122 7.68836C86.688 7.91525 83.85 8.31832 81.7882 10.1281V10.1255ZM16.8626 20.8642C14.777 21.1605 12.4802 22.3831 12.0684 24.66C11.7542 25.8932 12.7522 26.9503 13.824 27.3587C16.0786 28.2609 18.5575 28.2983 20.952 28.3063C23.8439 28.3622 26.736 28.2079 29.6059 27.8445C30.551 24.8193 31.4918 21.7887 32.4281 18.7528C27.2431 19.4601 22.0555 20.1461 16.8732 20.8882L16.8626 20.8642Z" fill="#9A9A9A"/>
</svg>
