<svg width="188" height="50" viewBox="0 0 188 50" fill="none" xmlns="http://www.w3.org/2000/svg">
<g clip-path="url(#clip0_220_2244)">
<path d="M107.773 16.7945C110.824 15.8191 114.026 15.4002 117.226 15.5577C119.794 15.7727 122.535 16.7749 123.977 19.053C125.45 21.5069 125.352 24.4773 125.374 27.2384C125.33 29.5583 125.095 32.177 123.335 33.8995C121.216 35.7476 118.227 35.9346 115.544 35.9626C112.669 35.9849 109.427 35.6555 107.301 33.4974C105.873 31.694 105.624 29.1423 106.253 26.9787C106.778 25.0245 108.81 24.039 110.607 23.5282C113.8 22.8665 117.101 22.8693 120.336 23.1987C120.3 22.0206 120.135 20.4963 118.791 20.1027C115.538 19.0698 112.018 19.8235 108.869 20.8732C108.477 20.9821 108.078 21.0435 107.684 21.1133C107.592 19.6736 107.625 18.2286 107.782 16.7945H107.773ZM112.755 27.0457C111.976 27.2272 111.104 27.4785 110.629 28.1624C110.143 29.2791 110.436 30.8313 111.52 31.479C113.029 32.1658 114.737 32.0541 116.352 32.0178C117.601 31.9424 119.079 31.8196 119.928 30.7783C120.442 29.6113 120.345 28.2881 120.398 27.043C117.861 26.8001 115.279 26.5684 112.755 27.043V27.0457ZM137.711 15.9486C140.827 15.7308 144.216 15.6443 147.005 17.2663C149.506 18.8241 150.358 21.9341 150.489 24.7119C150.587 27.7241 150.355 31.0854 148.276 33.4612C146.768 35.273 144.292 35.7895 142.051 35.9514C139.195 36.091 136.127 36.0603 133.584 34.589C131.15 33.1541 130.231 30.2032 130.063 27.5371C129.898 24.536 130.063 21.2306 131.921 18.7236C133.263 16.9145 135.554 16.1719 137.711 15.9486ZM138.563 19.871C137.398 20.0301 136.183 20.5159 135.532 21.546C134.629 22.9921 134.78 24.7733 134.749 26.4036C134.749 28.0536 134.883 29.9631 136.236 31.1161C137.504 32.043 139.17 32.0988 140.684 32.096C142.224 32.0374 144.004 31.7414 144.94 30.3735C145.91 28.866 145.736 26.9815 145.756 25.2702C145.756 23.704 145.616 21.8838 144.334 20.7867C142.707 19.5276 140.492 19.7146 138.563 19.8682V19.871ZM157.187 17.78C158.403 16.4679 160.261 16.1217 161.954 15.943C164.584 15.7671 167.322 15.8118 169.778 16.881C170.421 17.2216 171.095 16.8336 171.712 16.6298C173.833 15.7923 176.161 15.7923 178.402 15.9318C180.218 16.1049 182.208 16.5488 183.431 18.0061C184.549 19.3154 184.616 21.1412 184.664 22.7828C184.708 27.0541 184.664 31.3255 184.683 35.5968C183.096 35.6834 181.506 35.622 179.919 35.6638C179.852 31.3729 179.947 27.082 179.871 22.7911C179.855 21.8336 179.74 20.6024 178.706 20.1948C177.259 19.7119 175.68 19.8012 174.191 20.0134C173.14 20.1557 172.648 21.278 172.701 22.2468C172.617 26.6968 172.673 31.1496 172.673 35.5996C171.085 35.6978 169.493 35.7052 167.904 35.622C167.862 31.1552 167.904 26.6884 167.867 22.2356C167.923 21.1971 167.261 19.9854 166.107 19.9771C164.71 19.8542 163.204 19.6979 161.857 20.2088C160.82 20.6024 160.703 21.8308 160.689 22.7856C160.647 27.0513 160.689 31.3199 160.675 35.5885C159.084 35.6861 157.489 35.7029 155.896 35.6387C155.874 31.2557 155.896 26.8727 155.896 22.4868C155.924 20.8676 156.005 19.0474 157.173 17.7911L157.187 17.78ZM68.3457 16.2417C70.3324 16.1412 72.3248 16.1636 74.3171 16.2054C75.8847 18.4081 77.5277 20.5633 79.1093 22.7548C80.7859 20.5968 82.3842 18.369 84.0608 16.2054C85.9497 16.1803 87.8443 16.1161 89.7304 16.2222L89.8981 16.5516C87.4615 19.6449 84.9606 22.6739 82.51 25.7504C84.7985 28.718 87.0842 31.6884 89.4342 34.6058C89.6589 34.924 89.828 35.278 89.9344 35.6527C87.9784 35.6527 86.0056 35.7364 84.044 35.6136C82.5267 33.4193 80.9228 31.278 79.3189 29.1423C77.5864 31.3031 75.9657 33.5533 74.1942 35.6778C72.2633 35.6583 70.3324 35.6778 68.4016 35.6415C68.681 34.67 69.469 33.9972 70.0782 33.2239C71.8665 30.9905 73.6493 28.7571 75.4572 26.5432C75.5969 26.2976 75.9965 25.9681 75.7226 25.6834C73.8505 23.2797 71.9112 20.9374 70.0083 18.5533C69.4215 17.8079 68.7034 17.1407 68.3569 16.2417H68.3457ZM95.4503 16.2082C96.9844 16.2082 98.5241 16.1217 100.053 16.2082C100.248 16.5851 100.122 17.0457 100.167 17.4701C100.131 23.5142 100.195 29.5583 100.134 35.6164C98.544 35.7071 96.9505 35.7071 95.3609 35.6164C95.4447 29.1479 95.2603 22.6739 95.4503 16.2082ZM191.295 16.2082C192.854 16.1663 194.416 16.1887 195.978 16.1831C196.021 22.6767 196.021 29.173 195.978 35.6722C194.407 35.6722 192.837 35.7001 191.269 35.6722C191.172 31.5684 191.269 27.4589 191.23 23.3523C191.264 20.9737 191.158 18.6063 191.292 16.2166L191.295 16.2082Z" fill="#9A9A9A"/>
<path fill-rule="evenodd" clip-rule="evenodd" d="M24.8838 49.9854L25.1626 49.9889C25.4848 49.9889 25.8073 49.9917 26.1299 49.9945C26.7753 50.0001 27.4212 50.0057 28.0659 49.9889C31.8577 49.8577 35.6272 49.6818 39.2431 48.3558C41.4077 47.6243 43.3721 46.3994 44.9809 44.7781C46.5896 43.1568 47.7985 41.1835 48.5117 39.0146C49.401 36.3995 49.8908 33.6655 49.9648 30.9046C50.2162 24.9387 50.4482 18.9588 49.0985 13.0794C48.0702 8.61261 45.7035 5.06152 41.6098 2.8058C38.4998 1.10005 35.1382 0.452364 31.6677 0.262525C25.5678 -0.0696912 19.4762 -0.312572 13.4685 1.00234C6.70632 2.51267 2.36958 6.70027 1.07583 13.5261C-0.353897 21.1721 -0.358633 29.0162 1.06186 36.664C1.61012 39.7208 3.06986 42.5409 5.2498 44.7547C7.42974 46.9686 10.2282 48.4728 13.2785 49.0705C17.1173 49.8882 20.9988 49.9368 24.8838 49.9854ZM36.0038 15.6348H40.1953C40.2793 15.6355 40.3598 15.6687 40.4198 15.7276C40.4797 15.7865 40.5144 15.8663 40.5166 15.9502V35.068C40.5166 35.1537 40.4829 35.236 40.4228 35.2971C40.3627 35.3582 40.281 35.3932 40.1953 35.3947H36.0038C35.9181 35.3925 35.8364 35.3573 35.776 35.2965C35.7156 35.2356 35.6811 35.1538 35.6797 35.068V15.9558C35.6811 15.8706 35.7158 15.7894 35.7764 15.7294C35.837 15.6694 35.9186 15.6355 36.0038 15.6348ZM25.892 15.6339H9.93658C9.85135 15.6339 9.76962 15.6678 9.70935 15.728C9.64909 15.7882 9.61523 15.8698 9.61523 15.955V35.0672C9.61522 35.1529 9.6489 35.2351 9.70901 35.2962C9.76911 35.3573 9.85084 35.3924 9.93658 35.3938H14.128C14.214 35.3924 14.296 35.3574 14.3566 35.2964C14.4171 35.2354 14.4514 35.1531 14.4522 35.0672V20.0812C14.4536 19.995 14.4885 19.9127 14.5495 19.8518C14.6105 19.7909 14.6928 19.756 14.7791 19.7545H23.7907H24.0002C24.8126 19.7545 25.5918 20.0758 26.1678 20.6481C26.7437 21.2204 27.0695 21.9972 27.074 22.8087V22.9455V35.0672C27.0766 35.1496 27.1097 35.2282 27.1671 35.2875C27.2244 35.3468 27.3018 35.3828 27.3841 35.3883H31.5756C31.6613 35.3868 31.743 35.3517 31.8031 35.2906C31.8633 35.2295 31.8969 35.1473 31.8969 35.0616V21.4966V21.1644C31.8969 20.4587 31.7578 19.7599 31.4873 19.1079C31.2169 18.456 30.8206 17.8637 30.3209 17.3648C29.7994 16.8136 29.1709 16.3744 28.4738 16.0739C27.7767 15.7735 27.0256 15.6181 26.2664 15.6172H25.9171L25.892 15.6339ZM18.5479 23.2338H22.9601V23.2227C23.0449 23.2247 23.1258 23.2592 23.186 23.3188C23.2463 23.3785 23.2814 23.459 23.2842 23.5437V35.0624C23.2828 35.1476 23.2481 35.2288 23.1875 35.2888C23.127 35.3488 23.0454 35.3827 22.9601 35.3835H18.5479C18.5056 35.3838 18.4637 35.3758 18.4245 35.3598C18.3853 35.3438 18.3498 35.3201 18.3199 35.2903C18.2899 35.2604 18.2663 35.2248 18.2503 35.1857C18.2343 35.1466 18.2262 35.1047 18.2266 35.0624V23.5521C18.228 23.4676 18.2624 23.3871 18.3225 23.3277C18.3825 23.2682 18.4634 23.2345 18.5479 23.2338Z" fill="#9A9A9A"/>
</g>
<defs>
<clipPath id="clip0_220_2244">
<rect width="196" height="50" fill="white"/>
</clipPath>
</defs>
</svg>
