<svg width="188" height="30" viewBox="0 0 188 30" fill="none" xmlns="http://www.w3.org/2000/svg">
<g clip-path="url(#clip0_220_2634)">
<path fill-rule="evenodd" clip-rule="evenodd" d="M87.7392 17.4915H79.8558L83.7953 7.56826L87.7392 17.4915ZM124.601 28.7415H137.038V1.21587H126.347V15.721L115.09 1.21587H101.556V23.6604L92.5763 1.21587H75.2221L68.7137 17.4915H58.1023C57.5717 20.7423 55.6218 22.4701 52.2085 22.4701C48.2645 22.4701 46.0715 19.5265 46.0715 14.9787C46.0715 10.4309 48.3088 7.52986 52.2085 7.52986C55.4184 7.52986 57.5142 9.17662 57.9564 11.843H69.6997V11.0922C69.6997 5.01707 64.2525 0 52.3455 0C39.5233 0 34.6288 6.19454 34.6288 14.9787C34.6288 15.1792 34.6288 15.3797 34.6288 15.5802C33.0194 13.6903 29.9288 12.5939 24.8264 11.8814L17.394 10.8618C14.5908 10.4735 12.8222 10.1579 12.8222 8.82253C12.8222 7.68771 13.9187 6.47184 16.9695 6.47184C20.3431 6.47184 22.2134 7.72611 22.2134 9.76536H34.1513V9.17662C34.1778 3.68601 28.4874 0.0767918 17.31 0.0767918C5.81421 0.0767918 0.769332 4.11689 0.769332 9.81229C0.769332 14.2449 3.77592 16.8345 10.8502 17.773L19.251 18.9079C22.2576 19.3003 23.2303 19.8891 23.2303 21.1049C23.2303 22.6749 21.6872 23.541 18.2296 23.541C14.3299 23.541 12.5437 21.9283 12.5437 19.7014H0V20.3285C0 26.4505 5.97338 29.9573 17.7167 29.9573C28.5714 29.9573 34.8631 27.6451 35.8977 21.8046C38.0687 26.8174 43.1754 30 52.3455 30C59.296 30 63.2002 28.1698 65.5436 25.4138L64.2171 28.7415H75.3857L76.9686 24.7824H90.6397L92.2226 28.7415H112.261V12.901L124.614 28.7415H124.601ZM172.149 17.4915H164.266L168.205 7.56826L172.149 17.4915ZM188 28.7415L176.986 1.21587H159.614L150.652 23.6604V1.21587H139.718V28.7415H159.791L161.383 24.7824H175.036L176.624 28.7415H188Z" fill="#9A9A9A"/>
</g>
<defs>
<clipPath id="clip0_220_2634">
<rect width="188" height="30" fill="white"/>
</clipPath>
</defs>
</svg>
