<svg width="112" height="58" viewBox="0 0 112 58" fill="none" xmlns="http://www.w3.org/2000/svg">
<path d="M11.4168 18.2635V13.0869C11.4168 10.6452 10.6901 10.0594 9.23717 10.0594C7.78425 10.0594 7.0575 10.6452 7.0575 13.0869V19.0449C7.0575 22.5609 18.4742 32.1325 18.4742 37.0158V45.6109C18.4742 51.9592 13.5962 53.815 9.23717 53.815C4.87811 53.815 0 51.9592 0 45.6109V42.9738L7.0575 39.067V45.0247C7.0575 47.4664 7.78425 48.0525 9.23717 48.0525C10.5865 48.0525 11.4168 47.4664 11.4168 45.0247V39.946C11.4168 33.1091 0 27.3466 0 19.4355V12.501C0 6.15264 4.87811 4.29688 9.23717 4.29688C13.5962 4.29688 18.4742 6.15264 18.4742 12.501V14.2592L11.4168 18.2635Z" fill="#9A9A9A"/>
<path d="M57.4386 47.2712H62.8053L64.6594 53.815H50.8037V4.29688H57.4386V47.2712Z" fill="#9A9A9A"/>
<path d="M112 4.29688V10.8404H105.246V53.815H98.1792V10.8404H91.9442L91.2168 4.29688H112Z" fill="#9A9A9A"/>
<path d="M84.7405 4.29688H74.4994L69.2784 53.815H75.5034L77.0095 40.6295H81.8286L83.1339 53.815H90.0619L84.7405 4.29688ZM77.6117 34.0859L79.1178 15.9195H79.9211L81.1259 34.0859H77.6117Z" fill="#9A9A9A"/>
<path d="M32.3108 4.29688H25.4023V53.815H32.0188V10.2546C34.7433 10.2546 36.1054 10.3522 36.1054 15.0402V26.8583C36.1054 28.421 34.7433 28.9093 33.1864 29.1047L34.7433 34.9648C39.9975 34.3787 42.7219 31.9371 42.7219 24.9049V13.9661C42.6245 7.32439 39.6084 4.29688 32.3108 4.29688Z" fill="#9A9A9A"/>
</svg>
