<svg width="145" height="30" viewBox="0 0 145 30" fill="none" xmlns="http://www.w3.org/2000/svg">
<g clip-path="url(#clip0_220_1911)">
<path d="M71.6894 8.15327V0.000476486C62.7233 0.000476486 53.7602 0.000476486 44.7971 0.000476486C42.9257 -0.0197947 41.0984 0.562589 39.5912 1.65968C38.0559 2.76438 36.9079 4.31581 36.3078 6.09716C36.2565 4.06195 36.3078 2.02674 36.2836 -0.00549188C31.5758 -0.00549188 26.8679 -0.00549188 22.16 -0.00549188C21.5403 -0.0261984 20.9239 0.0918861 20.3569 0.339932C19.7899 0.587978 19.2869 0.959568 18.8856 1.42692C18.3574 2.05658 17.9319 2.75786 17.4642 3.4293C16.4411 5.01092 15.3667 6.56568 14.3799 8.15028C33.4831 8.15625 52.5862 8.15725 71.6894 8.15327Z" fill="#9A9A9A"/>
<path d="M0 29.92V30.0005H10.1642L23.9197 9.28731L14.3047 8.20703C9.54857 15.4526 4.78032 22.6903 0 29.92Z" fill="#9A9A9A"/>
<path d="M141.173 13.943C140.048 13.1254 138.687 12.6897 137.332 12.4062C136.236 12.248 135.125 12.2301 134.012 12.1406L107.808 10.6306C108.197 13.4447 110.777 15.6649 113.267 16.7511C114.318 17.1464 115.427 17.3731 116.55 17.4226L135.385 18.8669C135.862 18.9326 136.405 18.9535 136.788 19.2758C137.416 19.7115 137.392 20.6545 137.012 21.2453C136.71 21.5676 136.161 21.5258 135.75 21.5437L107.358 21.4512C107.358 17.8255 107.358 14.2027 107.358 10.5769L99.3878 10.0875C99.3878 12.8717 99.3878 15.6589 99.3878 18.4432C99.4214 19.0851 99.3604 19.7285 99.2067 20.3531C99.0152 20.8902 98.6421 21.3455 98.1504 21.6422C97.5469 21.9884 96.8165 21.9854 96.1345 21.9944C92.1931 21.9784 88.2508 21.9784 84.3074 21.9944C83.6913 22.0242 83.0755 21.9308 82.4967 21.7198C82.22 21.591 81.9727 21.408 81.7699 21.1817C81.567 20.9555 81.4128 20.6908 81.3167 20.4038C81.1609 19.7623 81.0979 19.1022 81.1296 18.4432C81.1507 15.3008 81.1296 12.1555 81.1296 9.01316C79.8953 8.8729 78.6519 8.92065 77.4176 8.81322C75.9539 8.70877 74.4903 8.57448 73.0206 8.54166V8.15371C75.7216 8.15371 78.4256 8.15371 81.1266 8.15371C81.1266 5.43612 81.1266 2.71951 81.1266 0.00390625H72.7701C72.7701 6.11253 72.7852 12.2182 72.7701 18.3268C72.4663 17.6255 72.1144 16.9455 71.7168 16.2916C70.3226 14.2027 68.0169 12.6181 65.506 12.4121L57.6414 11.7884C50.6158 11.5587 43.3307 10.6843 36.299 10.2188C36.6793 11.875 37.2708 13.5551 38.5021 14.7905C40.011 16.3572 42.4253 17.2286 44.568 17.3957L62.5847 18.8162C63.2276 18.8107 63.8689 18.8809 64.495 19.0251C64.8255 19.1608 65.1087 19.389 65.3099 19.6816C65.4567 19.9868 65.5016 20.3301 65.4381 20.6622C65.3747 20.9942 65.2061 21.2977 64.9568 21.5288C64.5795 21.878 64.0001 21.8064 63.5293 21.8511H35.8252C35.8252 17.9538 35.8252 14.0564 35.8252 10.1621L27.6377 9.55031V29.989H64.9598C65.5967 29.8974 66.2283 29.7729 66.852 29.616C68.4909 29.1303 69.9516 28.1836 71.0559 26.8914C72.0084 25.7755 72.6796 24.4521 73.0145 23.0299C73.2986 24.5168 73.9802 25.9014 74.9886 27.0396C75.997 28.1779 77.2952 29.0284 78.7485 29.5026C79.5512 29.801 80.4144 29.8517 81.2533 29.989H99.6895C100.606 29.8691 101.507 29.65 102.375 29.3354C103.78 28.7598 105.005 27.827 105.927 26.6318C106.531 25.8798 106.902 24.9785 107.295 24.1042C107.319 26.0707 107.295 28.0373 107.295 30.0009H136.722C139.011 29.813 141.142 28.7685 142.679 27.0804C144.216 25.3924 145.044 23.1881 144.994 20.9171C144.942 19.5425 144.57 18.1983 143.907 16.9888C143.245 15.7794 142.309 14.7371 141.173 13.943Z" fill="#9A9A9A"/>
<path d="M115.34 0.0874634C114.055 0.218355 112.813 0.623033 111.701 1.27366C110.588 1.9243 109.632 2.80544 108.897 3.85649C108.416 4.5812 108.021 5.35822 107.72 6.17221C107.681 4.11611 107.72 2.06001 107.702 0.00390625H99.3936C99.3936 2.71951 99.3936 5.43612 99.3936 8.15371H145C145 5.458 145 2.76328 145 0.0695583H118.041C117.142 0.0725425 116.239 0.0397165 115.34 0.0874634Z" fill="#9A9A9A"/>
</g>
<defs>
<clipPath id="clip0_220_1911">
<rect width="145" height="30" fill="white"/>
</clipPath>
</defs>
</svg>
